<?xml version="1.0" encoding="utf-8"?>
<!-- Generator: Adobe Illustrator 25.0.1, SVG Export Plug-In . SVG Version: 6.00 Build 0)  -->
<svg version="1.0"
	 id="Layer_1" inkscape:version="0.48.2 r9819" sodipodi:docname="Samsung Galaxy S logo.svg" xmlns:cc="http://creativecommons.org/ns#" xmlns:dc="http://purl.org/dc/elements/1.1/" xmlns:inkscape="http://www.inkscape.org/namespaces/inkscape" xmlns:rdf="http://www.w3.org/1999/02/22-rdf-syntax-ns#" xmlns:sodipodi="http://sodipodi.sourceforge.net/DTD/sodipodi-0.dtd" xmlns:svg="http://www.w3.org/2000/svg"
	 xmlns="http://www.w3.org/2000/svg" xmlns:xlink="http://www.w3.org/1999/xlink" x="0px" y="0px" viewBox="0 0 252 200.9"
	 style="enable-background:new 0 0 252 200.9;" xml:space="preserve">
<sodipodi:namedview  bordercolor="#666666" borderopacity="1" fit-margin-bottom="0" fit-margin-left="0" fit-margin-right="0" fit-margin-top="0" gridtolerance="10" guidetolerance="10" id="namedview179" inkscape:current-layer="Layer_1" inkscape:cx="134.44015" inkscape:cy="-5.6809171" inkscape:pageopacity="0" inkscape:pageshadow="2" inkscape:window-height="837" inkscape:window-maximized="1" inkscape:window-width="1600" inkscape:window-x="-8" inkscape:window-y="-8" inkscape:zoom="2.2426716" objecttolerance="10" pagecolor="#ffffff" showgrid="false">
	</sodipodi:namedview>
<g id="g55" transform="translate(-346.871,-176.268)">
	<path id="path57" inkscape:connector-curvature="0" d="M377.1,305v-16.9c0-7.8,4-11.3,12.8-11.3c3.4,0,7.7,0.4,10.4,1
		c0,0,0.1,0,0.2,0.1c-0.1,0.6-0.3,2.8-0.4,3.4c-0.1,0-0.3,0-0.3,0c-2.6-0.4-6.4-0.9-9.9-0.9c-6.7,0-9,2-9,7.8v16.8
		c0,5,1.4,7.8,8.7,7.8c1.8,0,4.8-0.2,7.3-0.7l0.4-0.1c0,0,0-12.6,0-13.4c0.7,0,3.2,0,3.9,0c0,0.8,0,15.5,0,16.1
		c-0.1,0-0.2,0.1-0.2,0.1c-3.4,1-7.8,1.6-11.6,1.6C380.8,316.3,377.1,312.9,377.1,305z"/>
	<path id="path59" inkscape:connector-curvature="0" d="M442,305c0,0,0-27.3,0-28.2c0.7,0,3.2,0,3.9,0c0,0.9,0,28.1,0,28.1
		c0,5,1.4,7.8,8.7,7.8c0,0,10.2,0,11.1,0c0,0.6,0,2.8,0,3.5c-0.8,0-11.3,0.1-11.3,0.1C445.7,316.3,442,312.9,442,305z"/>
	<path id="path61" inkscape:connector-curvature="0" d="M535.1,277.4c0,0,0.3,0,0.5,0c-0.9,1.3-12.4,18.9-12.4,18.9
		s12,18.1,12.8,19.4c-1.1,0-3.9,0-4.3,0c-0.3-0.4-10.7-16.3-10.7-16.3s-10.4,15.9-10.7,16.3c-0.4,0-3.2,0-4.3,0
		c0.9-1.3,12.8-19.4,12.8-19.4s-11.6-17.6-12.4-18.9c1.1,0,3.9,0,4.3,0c0.3,0.4,10.3,15.7,10.3,15.7s10-15.3,10.3-15.7
		C531.7,277.4,535.1,277.4,535.1,277.4L535.1,277.4z"/>
	<path id="path63" inkscape:connector-curvature="0" d="M568.4,277.4c0,0,0.2,0,0.5,0c-0.6,1.2-13,26.5-13,26.5s0,11,0,11.8
		c-0.7,0-3.2,0-3.9,0c0-0.8,0-11.8,0-11.8s-12.4-25.2-13-26.5c1,0,3.7,0,4.1,0c0.2,0.5,10.9,22.4,10.9,22.4s10.7-21.9,10.9-22.4
		C565.3,277.4,568.4,277.4,568.4,277.4z"/>
	<path id="path65" inkscape:connector-curvature="0" d="M434.3,315.7c0.5,0,3,0,3.9,0c-0.4-1.2-13.1-37.7-13.3-38.3
		c-0.1,0-0.2,0-0.2,0s-4.6,0-5.1,0c-0.2,0.6-12.9,37.2-13.3,38.3c0.9,0,3.4,0,3.9,0c0.2-0.7,2.3-6.7,4.7-13.7h14.8
		C432.1,309.2,434.2,315.5,434.3,315.7L434.3,315.7z M416,298.5c3.1-8.9,6.2-18,6.2-18s3.1,9.1,6.2,18H416L416,298.5z"/>
	<path id="path67" inkscape:connector-curvature="0" d="M498.6,315.7c0.5,0,3,0,3.9,0c-0.4-1.2-13.1-37.7-13.3-38.3
		c-0.1,0-0.2,0-0.2,0s-4.6,0-5.1,0c-0.2,0.6-12.9,37.2-13.3,38.3c0.9,0,3.4,0,3.9,0c0.2-0.7,2.3-6.7,4.7-13.7h14.8
		C496.3,309.2,498.5,315.5,498.6,315.7L498.6,315.7z M480.3,298.5c3.1-8.9,6.2-18,6.2-18s3.1,9.1,6.2,18H480.3z"/>
</g>
<g id="g69" transform="translate(-346.871,-176.268)">
	<path id="path71" inkscape:connector-curvature="0" d="M381.2,250.7c-0.8-0.3-1.5-0.7-2-1.1c-0.5-0.5-0.9-1-1.2-1.6
		c-0.3-0.6-0.5-1.2-0.6-1.8c-0.1-0.6-0.2-1.3-0.2-1.9v-0.5c0-2.1,0.6-3.7,1.8-4.8c1.2-1.1,3-1.7,5.4-1.7h1.4c1.9,0,3.3,0.4,4.4,1.3
		c1.1,0.8,1.6,2.2,1.6,4.1c0,0.4-0.1,0.7-0.3,1c-0.2,0.3-0.6,0.4-1.1,0.4c-0.5,0-0.9-0.1-1.1-0.4c-0.2-0.3-0.3-0.6-0.3-1
		c0-1-0.3-1.7-0.9-2.1c-0.6-0.4-1.4-0.6-2.4-0.6h-1.4c-1.5,0-2.7,0.3-3.3,0.9c-0.7,0.6-1,1.6-1,3v0.5c0,1,0.2,1.9,0.5,2.5
		c0.4,0.6,1,1.1,1.9,1.4l6,2.1c1.4,0.5,2.5,1.3,3.2,2.5c0.7,1.1,1.1,2.5,1.1,4.1v1.3c0,2.1-0.6,3.8-1.8,5c-1.2,1.2-3,1.9-5.4,1.9
		h-2.6c-1.9,0-3.3-0.4-4.4-1.3c-1.1-0.8-1.6-2.2-1.6-4.1c0-0.4,0.1-0.7,0.3-1c0.2-0.3,0.6-0.4,1.1-0.4c0.5,0,0.9,0.1,1.1,0.4
		c0.2,0.3,0.3,0.6,0.3,1c0,1,0.3,1.7,0.9,2.1c0.6,0.4,1.4,0.6,2.4,0.6h2.6c1.5,0,2.7-0.4,3.3-1.1c0.7-0.7,1-1.8,1-3.2v-1.3
		c0-1-0.2-1.8-0.5-2.5c-0.4-0.7-0.9-1.1-1.7-1.4L381.2,250.7L381.2,250.7z"/>
	<path id="path73" inkscape:connector-curvature="0" d="M404.5,244.5c1.9,0,3.3,0.5,4.4,1.6c1.1,1.1,1.6,2.5,1.6,4.2v13
		c0,0.4-0.1,0.7-0.3,1c-0.2,0.3-0.6,0.4-1.1,0.4h-6.2c-1.9,0-3.3-0.4-4.4-1.2c-1.1-0.8-1.6-2.1-1.6-3.8v-3.1c0-1.7,0.5-3,1.6-3.8
		c1.1-0.8,2.5-1.2,4.4-1.2h4.9v-1.2c0-1.2-0.3-2.1-0.9-2.6c-0.6-0.5-1.4-0.7-2.4-0.7h-4.3c-0.4,0-0.7-0.1-0.9-0.3
		c-0.3-0.2-0.4-0.5-0.4-1c0-0.5,0.1-0.8,0.4-1c0.3-0.2,0.6-0.3,0.9-0.3L404.5,244.5L404.5,244.5z M407.8,262.1v-8h-4.9
		c-1,0-1.8,0.2-2.4,0.6c-0.6,0.4-0.9,1-0.9,1.9v3.1c0,0.8,0.3,1.4,0.9,1.8c0.6,0.4,1.4,0.6,2.4,0.6H407.8z"/>
	<path id="path75" inkscape:connector-curvature="0" d="M434.4,251.4c0-1.4-0.3-2.4-1-3.2c-0.7-0.8-1.8-1.1-3.3-1.1h-2.2v16.5
		c0,0.4-0.1,0.7-0.3,1c-0.2,0.3-0.5,0.4-1.1,0.4c-0.5,0-0.9-0.1-1.1-0.4c-0.2-0.3-0.3-0.6-0.3-1v-16.5h-6.5v16.5
		c0,0.4-0.1,0.7-0.3,1c-0.2,0.3-0.5,0.4-1.1,0.4s-0.9-0.1-1.1-0.4c-0.2-0.3-0.3-0.6-0.3-1v-17.7c0-0.4,0.1-0.7,0.3-1
		c0.2-0.3,0.5-0.4,1.1-0.4h12.7c2.4,0,4.2,0.6,5.3,1.9c1.1,1.2,1.7,2.9,1.7,5v12.2c0,0.4-0.1,0.7-0.3,1c-0.2,0.3-0.5,0.4-1.1,0.4
		c-0.5,0-0.9-0.1-1.1-0.4c-0.2-0.3-0.3-0.6-0.3-1L434.4,251.4L434.4,251.4z"/>
	<path id="path77" inkscape:connector-curvature="0" d="M447.5,265c-1.7,0-3-0.4-4-1.1c-1-0.7-1.5-1.8-1.5-3.4c0-0.4,0.1-0.7,0.3-1
		c0.2-0.3,0.5-0.4,1.1-0.4s0.9,0.1,1,0.4c0.2,0.3,0.3,0.6,0.3,1c0.1,1.3,1,2,2.8,2h2c1,0,1.8-0.2,2.4-0.7c0.6-0.5,0.9-1.1,0.9-1.8
		v-1.6c0-0.6-0.2-1.1-0.5-1.5c-0.3-0.4-0.8-0.6-1.4-0.8l-5.3-1.4c-1.1-0.3-1.9-0.8-2.5-1.5c-0.6-0.7-0.9-1.7-0.9-3v-1.1
		c0-1.7,0.5-3,1.6-3.8c1.1-0.8,2.5-1.2,4.4-1.2h1c1.7,0,3,0.4,4,1.1c1,0.7,1.5,1.8,1.5,3.4c0,0.4-0.1,0.7-0.3,1
		c-0.2,0.3-0.5,0.4-1.1,0.4c-0.5,0-0.9-0.1-1-0.4c-0.2-0.3-0.3-0.6-0.3-1c-0.1-1.3-1-2-2.8-2h-1c-1,0-1.8,0.2-2.4,0.7
		c-0.6,0.5-0.9,1.1-0.9,1.8v1.1c0,0.6,0.2,1.1,0.5,1.5c0.3,0.4,0.8,0.7,1.4,0.8l5.3,1.4c1.1,0.3,1.9,0.8,2.5,1.5
		c0.6,0.7,0.9,1.7,0.9,3v1.6c0,1.7-0.5,3-1.6,3.8c-1.1,0.8-2.5,1.2-4.4,1.2L447.5,265L447.5,265z"/>
	<path id="path79" inkscape:connector-curvature="0" d="M462.9,257.8c0,1.4,0.3,2.4,1,3.2c0.7,0.8,1.8,1.1,3.3,1.1h4.4v-16.5
		c0-0.4,0.1-0.7,0.3-1c0.2-0.3,0.5-0.4,1.1-0.4c0.5,0,0.9,0.1,1.1,0.4s0.3,0.6,0.3,1v17.7c0,0.4-0.1,0.7-0.3,1
		c-0.2,0.3-0.5,0.4-1.1,0.4h-5.8c-2.4,0-4.2-0.6-5.3-1.9c-1.1-1.2-1.7-2.9-1.7-5v-12.2c0-0.4,0.1-0.7,0.3-1c0.2-0.3,0.5-0.4,1.1-0.4
		s0.9,0.1,1.1,0.4c0.2,0.3,0.3,0.6,0.3,1L462.9,257.8L462.9,257.8z"/>
	<path id="path81" inkscape:connector-curvature="0" d="M491.7,251.4c0-1.4-0.3-2.4-1-3.2c-0.7-0.8-1.8-1.1-3.3-1.1H483v16.5
		c0,0.4-0.1,0.7-0.3,1c-0.2,0.3-0.5,0.4-1.1,0.4c-0.5,0-0.9-0.1-1.1-0.4c-0.2-0.3-0.3-0.6-0.3-1v-17.7c0-0.4,0.1-0.7,0.3-1
		c0.2-0.3,0.5-0.4,1.1-0.4h5.8c2.4,0,4.2,0.6,5.3,1.9c1.1,1.2,1.7,2.9,1.7,5v12.2c0,0.4-0.1,0.7-0.3,1c-0.2,0.3-0.5,0.4-1.1,0.4
		c-0.5,0-0.9-0.1-1.1-0.4c-0.2-0.3-0.3-0.6-0.3-1L491.7,251.4L491.7,251.4z"/>
	<path id="path83" inkscape:connector-curvature="0" d="M513.7,266.9c0,1.1-0.1,2.1-0.4,3c-0.3,0.9-0.8,1.7-1.4,2.4
		c-0.6,0.7-1.4,1.2-2.2,1.6c-0.9,0.4-1.9,0.6-3.1,0.6H503c-0.4,0-0.7-0.1-0.9-0.3c-0.3-0.2-0.4-0.5-0.4-1c0-0.5,0.1-0.8,0.4-1
		c0.3-0.2,0.6-0.3,0.9-0.3h3.6c1.5,0,2.7-0.5,3.4-1.4c0.7-0.9,1.1-2.1,1.1-3.5v-2.2h-4.4c-2.4,0-4.2-0.6-5.3-1.9
		c-1.1-1.2-1.7-2.9-1.7-5V252c0-1.1,0.1-2.1,0.4-3c0.3-0.9,0.7-1.7,1.4-2.4c0.6-0.7,1.4-1.2,2.2-1.6c0.9-0.4,1.9-0.6,3.1-0.6h5.6
		c0.5,0,0.9,0.1,1.1,0.4c0.2,0.3,0.3,0.6,0.3,1L513.7,266.9L513.7,266.9z M506.7,247.1c-1.5,0-2.7,0.5-3.4,1.4
		c-0.7,0.9-1.1,2.1-1.1,3.5v5.8c0,1.4,0.3,2.4,1,3.2c0.7,0.8,1.8,1.1,3.3,1.1h4.4v-15L506.7,247.1L506.7,247.1z"/>
</g>
</svg>
