<svg xmlns="http://www.w3.org/2000/svg" xmlns:xlink="http://www.w3.org/1999/xlink" width="500" zoomAndPan="magnify" viewBox="0 0 375 374.999991" height="500" preserveAspectRatio="xMidYMid meet" version="1.0"><defs><g/></defs><g fill="#000000" fill-opacity="1"><g transform="translate(20.300821, 223.860704)"><g><path d="M 3.578125 -38.09375 C 3.578125 -45.601562 5.195312 -52.296875 8.4375 -58.171875 C 11.6875 -64.054688 16.210938 -68.640625 22.015625 -71.921875 C 27.828125 -75.203125 34.414062 -76.84375 41.78125 -76.84375 C 50.800781 -76.84375 58.519531 -74.460938 64.9375 -69.703125 C 71.363281 -64.941406 75.660156 -58.445312 77.828125 -50.21875 L 57.46875 -50.21875 C 55.957031 -53.394531 53.8125 -55.8125 51.03125 -57.46875 C 48.25 -59.132812 45.09375 -59.96875 41.5625 -59.96875 C 35.863281 -59.96875 31.242188 -57.984375 27.703125 -54.015625 C 24.171875 -50.046875 22.40625 -44.738281 22.40625 -38.09375 C 22.40625 -31.457031 24.171875 -26.15625 27.703125 -22.1875 C 31.242188 -18.21875 35.863281 -16.234375 41.5625 -16.234375 C 45.09375 -16.234375 48.25 -17.0625 51.03125 -18.71875 C 53.8125 -20.382812 55.957031 -22.800781 57.46875 -25.96875 L 77.828125 -25.96875 C 75.660156 -17.75 71.363281 -11.273438 64.9375 -6.546875 C 58.519531 -1.816406 50.800781 0.546875 41.78125 0.546875 C 34.414062 0.546875 27.828125 -1.09375 22.015625 -4.375 C 16.210938 -7.664062 11.6875 -12.234375 8.4375 -18.078125 C 5.195312 -23.921875 3.578125 -30.59375 3.578125 -38.09375 Z M 3.578125 -38.09375 "/></g></g></g><g fill="#000000" fill-opacity="1"><g transform="translate(106.438045, 223.860704)"><g><path d="M 3.578125 -38.09375 C 3.578125 -45.601562 5.195312 -52.296875 8.4375 -58.171875 C 11.6875 -64.054688 16.210938 -68.640625 22.015625 -71.921875 C 27.828125 -75.203125 34.414062 -76.84375 41.78125 -76.84375 C 50.800781 -76.84375 58.519531 -74.460938 64.9375 -69.703125 C 71.363281 -64.941406 75.660156 -58.445312 77.828125 -50.21875 L 57.46875 -50.21875 C 55.957031 -53.394531 53.8125 -55.8125 51.03125 -57.46875 C 48.25 -59.132812 45.09375 -59.96875 41.5625 -59.96875 C 35.863281 -59.96875 31.242188 -57.984375 27.703125 -54.015625 C 24.171875 -50.046875 22.40625 -44.738281 22.40625 -38.09375 C 22.40625 -31.457031 24.171875 -26.15625 27.703125 -22.1875 C 31.242188 -18.21875 35.863281 -16.234375 41.5625 -16.234375 C 45.09375 -16.234375 48.25 -17.0625 51.03125 -18.71875 C 53.8125 -20.382812 55.957031 -22.800781 57.46875 -25.96875 L 77.828125 -25.96875 C 75.660156 -17.75 71.363281 -11.273438 64.9375 -6.546875 C 58.519531 -1.816406 50.800781 0.546875 41.78125 0.546875 C 34.414062 0.546875 27.828125 -1.09375 22.015625 -4.375 C 16.210938 -7.664062 11.6875 -12.234375 8.4375 -18.078125 C 5.195312 -23.921875 3.578125 -30.59375 3.578125 -38.09375 Z M 3.578125 -38.09375 "/></g></g></g><g fill="#000000" fill-opacity="1"><g transform="translate(192.575268, 223.860704)"><g><path d="M 56.171875 -75.984375 L 56.171875 -61.15625 L 25.21875 -61.15625 L 25.21875 -45.140625 L 48.375 -45.140625 L 48.375 -30.734375 L 25.21875 -30.734375 L 25.21875 0 L 6.703125 0 L 6.703125 -75.984375 Z M 56.171875 -75.984375 "/></g></g></g><g fill="#000000" fill-opacity="1"><g transform="translate(255.447158, 223.860704)"><g><path d="M 16.015625 -66.671875 C 12.765625 -66.671875 10.113281 -67.625 8.0625 -69.53125 C 6.007812 -71.445312 4.984375 -73.8125 4.984375 -76.625 C 4.984375 -79.507812 6.007812 -81.910156 8.0625 -83.828125 C 10.113281 -85.742188 12.765625 -86.703125 16.015625 -86.703125 C 19.191406 -86.703125 21.804688 -85.742188 23.859375 -83.828125 C 25.921875 -81.910156 26.953125 -79.507812 26.953125 -76.625 C 26.953125 -73.8125 25.921875 -71.445312 23.859375 -69.53125 C 21.804688 -67.625 19.191406 -66.671875 16.015625 -66.671875 Z M 25.21875 -60.390625 L 25.21875 0 L 6.703125 0 L 6.703125 -60.390625 Z M 25.21875 -60.390625 "/></g></g></g><g fill="#000000" fill-opacity="1"><g transform="translate(291.049915, 223.860704)"><g><path d="M 42.421875 0 L 30.84375 -16.78125 L 21.109375 0 L 1.078125 0 L 21 -30.84375 L 0.546875 -60.390625 L 21.328125 -60.390625 L 32.90625 -43.734375 L 42.640625 -60.390625 L 62.671875 -60.390625 L 42.421875 -29.984375 L 63.203125 0 Z M 42.421875 0 "/></g></g></g></svg>