<svg xmlns="http://www.w3.org/2000/svg" xmlns:xlink="http://www.w3.org/1999/xlink" width="1230" zoomAndPan="magnify" viewBox="0 0 922.5 225" height="300" preserveAspectRatio="xMidYMid meet" version="1.0"><defs><g/></defs><g fill="#f39200" fill-opacity="1"><g transform="translate(61.320141, 209.947184)"><g><path d="M 8.53125 -91.0625 C 8.53125 -109 12.410156 -124.992188 20.171875 -139.046875 C 27.929688 -153.097656 38.753906 -164.046875 52.640625 -171.890625 C 66.523438 -179.742188 82.265625 -183.671875 99.859375 -183.671875 C 121.410156 -183.671875 139.859375 -177.976562 155.203125 -166.59375 C 170.554688 -155.207031 180.820312 -139.6875 186 -120.03125 L 137.359375 -120.03125 C 133.742188 -127.613281 128.613281 -133.390625 121.96875 -137.359375 C 115.332031 -141.328125 107.789062 -143.3125 99.34375 -143.3125 C 85.71875 -143.3125 74.675781 -138.566406 66.21875 -129.078125 C 57.769531 -119.597656 53.546875 -106.925781 53.546875 -91.0625 C 53.546875 -75.195312 57.769531 -62.519531 66.21875 -53.03125 C 74.675781 -43.539062 85.71875 -38.796875 99.34375 -38.796875 C 107.789062 -38.796875 115.332031 -40.78125 121.96875 -44.75 C 128.613281 -48.71875 133.742188 -54.492188 137.359375 -62.078125 L 186 -62.078125 C 180.820312 -42.421875 170.554688 -26.941406 155.203125 -15.640625 C 139.859375 -4.347656 121.410156 1.296875 99.859375 1.296875 C 82.265625 1.296875 66.523438 -2.625 52.640625 -10.46875 C 38.753906 -18.320312 27.929688 -29.234375 20.171875 -43.203125 C 12.410156 -57.171875 8.53125 -73.125 8.53125 -91.0625 Z M 8.53125 -91.0625 "/></g></g></g><g fill="#f39200" fill-opacity="1"><g transform="translate(267.239051, 209.947184)"><g><path d="M 8.53125 -91.0625 C 8.53125 -109 12.410156 -124.992188 20.171875 -139.046875 C 27.929688 -153.097656 38.753906 -164.046875 52.640625 -171.890625 C 66.523438 -179.742188 82.265625 -183.671875 99.859375 -183.671875 C 121.410156 -183.671875 139.859375 -177.976562 155.203125 -166.59375 C 170.554688 -155.207031 180.820312 -139.6875 186 -120.03125 L 137.359375 -120.03125 C 133.742188 -127.613281 128.613281 -133.390625 121.96875 -137.359375 C 115.332031 -141.328125 107.789062 -143.3125 99.34375 -143.3125 C 85.71875 -143.3125 74.675781 -138.566406 66.21875 -129.078125 C 57.769531 -119.597656 53.546875 -106.925781 53.546875 -91.0625 C 53.546875 -75.195312 57.769531 -62.519531 66.21875 -53.03125 C 74.675781 -43.539062 85.71875 -38.796875 99.34375 -38.796875 C 107.789062 -38.796875 115.332031 -40.78125 121.96875 -44.75 C 128.613281 -48.71875 133.742188 -54.492188 137.359375 -62.078125 L 186 -62.078125 C 180.820312 -42.421875 170.554688 -26.941406 155.203125 -15.640625 C 139.859375 -4.347656 121.410156 1.296875 99.859375 1.296875 C 82.265625 1.296875 66.523438 -2.625 52.640625 -10.46875 C 38.753906 -18.320312 27.929688 -29.234375 20.171875 -43.203125 C 12.410156 -57.171875 8.53125 -73.125 8.53125 -91.0625 Z M 8.53125 -91.0625 "/></g></g></g><g fill="#f39200" fill-opacity="1"><g transform="translate(473.15796, 209.947184)"><g><path d="M 134.265625 -181.59375 L 134.265625 -146.15625 L 60.28125 -146.15625 L 60.28125 -107.875 L 115.640625 -107.875 L 115.640625 -73.46875 L 60.28125 -73.46875 L 60.28125 0 L 16.03125 0 L 16.03125 -181.59375 Z M 134.265625 -181.59375 "/></g></g></g><g fill="#f39200" fill-opacity="1"><g transform="translate(623.458128, 209.947184)"><g><path d="M 38.28125 -159.34375 C 30.519531 -159.34375 24.179688 -161.628906 19.265625 -166.203125 C 14.359375 -170.773438 11.90625 -176.425781 11.90625 -183.15625 C 11.90625 -190.050781 14.359375 -195.78125 19.265625 -200.34375 C 24.179688 -204.914062 30.519531 -207.203125 38.28125 -207.203125 C 45.875 -207.203125 52.125 -204.914062 57.03125 -200.34375 C 61.945312 -195.78125 64.40625 -190.050781 64.40625 -183.15625 C 64.40625 -176.425781 61.945312 -170.773438 57.03125 -166.203125 C 52.125 -161.628906 45.875 -159.34375 38.28125 -159.34375 Z M 60.28125 -144.34375 L 60.28125 0 L 16.03125 0 L 16.03125 -144.34375 Z M 60.28125 -144.34375 "/></g></g></g><g fill="#f39200" fill-opacity="1"><g transform="translate(708.567985, 209.947184)"><g><path d="M 101.40625 0 L 73.71875 -40.09375 L 50.4375 0 L 2.59375 0 L 50.1875 -73.71875 L 1.296875 -144.34375 L 50.96875 -144.34375 L 78.640625 -104.515625 L 101.921875 -144.34375 L 149.78125 -144.34375 L 101.40625 -71.65625 L 151.078125 0 Z M 101.40625 0 "/></g></g></g></svg>