<svg xmlns="http://www.w3.org/2000/svg" xmlns:xlink="http://www.w3.org/1999/xlink" width="1230" zoomAndPan="magnify" viewBox="0 0 922.5 225" height="300" preserveAspectRatio="xMidYMid meet" version="1.0"><defs><g/><clipPath id="7c4fe4b062"><path d="M 0 0.0625 L 214.382812 0.0625 L 214.382812 224.9375 L 0 224.9375 Z M 0 0.0625 " clip-rule="nonzero"/></clipPath></defs><g fill="#f39200" fill-opacity="1"><g transform="translate(143.200548, 210.669418)"><g><path d="M 8.265625 -88.25 C 8.265625 -105.632812 12.023438 -121.132812 19.546875 -134.75 C 27.078125 -148.375 37.566406 -158.988281 51.015625 -166.59375 C 64.472656 -174.195312 79.722656 -178 96.765625 -178 C 117.660156 -178 135.546875 -172.484375 150.421875 -161.453125 C 165.296875 -150.421875 175.238281 -135.378906 180.25 -116.328125 L 133.125 -116.328125 C 129.613281 -123.679688 124.640625 -129.28125 118.203125 -133.125 C 111.765625 -136.96875 104.453125 -138.890625 96.265625 -138.890625 C 83.066406 -138.890625 72.367188 -134.289062 64.171875 -125.09375 C 55.984375 -115.90625 51.890625 -103.625 51.890625 -88.25 C 51.890625 -72.875 55.984375 -60.585938 64.171875 -51.390625 C 72.367188 -42.203125 83.066406 -37.609375 96.265625 -37.609375 C 104.453125 -37.609375 111.765625 -39.53125 118.203125 -43.375 C 124.640625 -47.21875 129.613281 -52.816406 133.125 -60.171875 L 180.25 -60.171875 C 175.238281 -41.117188 165.296875 -26.117188 150.421875 -15.171875 C 135.546875 -4.222656 117.660156 1.25 96.765625 1.25 C 79.722656 1.25 64.472656 -2.550781 51.015625 -10.15625 C 37.566406 -17.757812 27.078125 -28.328125 19.546875 -41.859375 C 12.023438 -55.398438 8.265625 -70.863281 8.265625 -88.25 Z M 8.265625 -88.25 "/></g></g></g><g fill="#f39200" fill-opacity="1"><g transform="translate(342.758795, 210.669418)"><g><path d="M 8.265625 -88.25 C 8.265625 -105.632812 12.023438 -121.132812 19.546875 -134.75 C 27.078125 -148.375 37.566406 -158.988281 51.015625 -166.59375 C 64.472656 -174.195312 79.722656 -178 96.765625 -178 C 117.660156 -178 135.546875 -172.484375 150.421875 -161.453125 C 165.296875 -150.421875 175.238281 -135.378906 180.25 -116.328125 L 133.125 -116.328125 C 129.613281 -123.679688 124.640625 -129.28125 118.203125 -133.125 C 111.765625 -136.96875 104.453125 -138.890625 96.265625 -138.890625 C 83.066406 -138.890625 72.367188 -134.289062 64.171875 -125.09375 C 55.984375 -115.90625 51.890625 -103.625 51.890625 -88.25 C 51.890625 -72.875 55.984375 -60.585938 64.171875 -51.390625 C 72.367188 -42.203125 83.066406 -37.609375 96.265625 -37.609375 C 104.453125 -37.609375 111.765625 -39.53125 118.203125 -43.375 C 124.640625 -47.21875 129.613281 -52.816406 133.125 -60.171875 L 180.25 -60.171875 C 175.238281 -41.117188 165.296875 -26.117188 150.421875 -15.171875 C 135.546875 -4.222656 117.660156 1.25 96.765625 1.25 C 79.722656 1.25 64.472656 -2.550781 51.015625 -10.15625 C 37.566406 -17.757812 27.078125 -28.328125 19.546875 -41.859375 C 12.023438 -55.398438 8.265625 -70.863281 8.265625 -88.25 Z M 8.265625 -88.25 "/></g></g></g><g fill="#f39200" fill-opacity="1"><g transform="translate(542.317043, 210.669418)"><g><path d="M 130.109375 -176 L 130.109375 -141.640625 L 58.40625 -141.640625 L 58.40625 -104.546875 L 112.0625 -104.546875 L 112.0625 -71.203125 L 58.40625 -71.203125 L 58.40625 0 L 15.546875 0 L 15.546875 -176 Z M 130.109375 -176 "/></g></g></g><g fill="#f39200" fill-opacity="1"><g transform="translate(687.974527, 210.669418)"><g><path d="M 37.109375 -154.4375 C 29.585938 -154.4375 23.441406 -156.648438 18.671875 -161.078125 C 13.910156 -165.503906 11.53125 -170.976562 11.53125 -177.5 C 11.53125 -184.1875 13.910156 -189.742188 18.671875 -194.171875 C 23.441406 -198.597656 29.585938 -200.8125 37.109375 -200.8125 C 44.460938 -200.8125 50.519531 -198.597656 55.28125 -194.171875 C 60.039062 -189.742188 62.421875 -184.1875 62.421875 -177.5 C 62.421875 -170.976562 60.039062 -165.503906 55.28125 -161.078125 C 50.519531 -156.648438 44.460938 -154.4375 37.109375 -154.4375 Z M 58.40625 -139.890625 L 58.40625 0 L 15.546875 0 L 15.546875 -139.890625 Z M 58.40625 -139.890625 "/></g></g></g><g fill="#f39200" fill-opacity="1"><g transform="translate(770.455362, 210.669418)"><g><path d="M 98.28125 0 L 71.453125 -38.859375 L 48.890625 0 L 2.5 0 L 48.640625 -71.453125 L 1.25 -139.890625 L 49.390625 -139.890625 L 76.21875 -101.28125 L 98.78125 -139.890625 L 145.15625 -139.890625 L 98.28125 -69.4375 L 146.40625 0 Z M 98.28125 0 "/></g></g></g><g clip-path="url(#7c4fe4b062)"><path fill="#4fc1ea" d="M 212.835938 94.042969 L 205.152344 94.042969 L 202.40625 93.105469 C 201.132812 88.179688 199.175781 83.453125 196.570312 79.023438 L 197.851562 76.421875 L 203.285156 70.980469 C 203.9375 70.328125 203.9375 69.269531 203.285156 68.617188 L 187.355469 52.6875 C 186.703125 52.035156 185.644531 52.035156 184.992188 52.6875 L 179.550781 58.121094 L 176.949219 59.402344 C 172.53125 56.804688 167.804688 54.84375 162.867188 53.566406 L 161.929688 50.820312 L 161.929688 43.140625 C 161.929688 42.21875 161.179688 41.46875 160.257812 41.46875 L 137.722656 41.46875 C 136.800781 41.46875 136.050781 42.21875 136.050781 43.140625 L 136.050781 50.828125 L 135.121094 53.570312 C 133.832031 53.902344 132.550781 54.292969 131.28125 54.722656 L 131.28125 53.46875 C 131.28125 46.269531 129.574219 39.117188 126.355469 32.730469 C 126.480469 31.960938 126.550781 31.171875 126.550781 30.371094 L 126.550781 29.800781 C 126.550781 20.980469 123.09375 13.0625 116.550781 6.902344 C 111.949219 2.574219 106.738281 0.078125 105.925781 0.078125 C 105.453125 0.078125 105.003906 0.277344 104.6875 0.628906 C 104.367188 0.980469 104.214844 1.449219 104.261719 1.917969 C 104.441406 3.703125 103.894531 5.273438 102.59375 6.710938 C 95.304688 14.765625 68.953125 15.390625 61.050781 15.390625 C 59.300781 15.390625 58.25 15.363281 58.242188 15.363281 C 58.222656 15.363281 58.207031 15.363281 58.191406 15.363281 C 50.230469 15.363281 43.75 21.839844 43.75 29.800781 L 43.75 30.371094 C 43.75 31.171875 43.820312 31.960938 43.945312 32.726562 C 40.726562 39.113281 39.023438 46.269531 39.023438 53.46875 L 39.023438 61.074219 C 32.632812 61.898438 27.679688 67.371094 27.679688 73.980469 C 27.679688 80.605469 32.65625 86.085938 39.066406 86.890625 C 39.542969 98.480469 44.28125 109.304688 52.535156 117.558594 C 55.214844 120.238281 58.167969 122.546875 61.332031 124.460938 L 61.332031 141.492188 C 60.660156 141.6875 60.011719 141.886719 59.390625 142.085938 C 42.289062 147.507812 27.558594 158.023438 16.796875 172.496094 C 5.820312 187.253906 0.0195312 204.804688 0.0195312 223.246094 C 0.0195312 224.171875 0.765625 224.917969 1.691406 224.917969 L 36.386719 224.917969 C 36.390625 224.917969 36.394531 224.921875 36.394531 224.921875 L 133.90625 224.921875 C 133.910156 224.921875 133.910156 224.917969 133.914062 224.917969 L 168.609375 224.917969 C 169.535156 224.917969 170.28125 224.171875 170.28125 223.246094 C 170.28125 204.804688 164.480469 187.253906 153.503906 172.496094 C 153.503906 172.496094 153.503906 172.492188 153.503906 172.492188 L 160.257812 172.492188 C 161.179688 172.492188 161.929688 171.746094 161.929688 170.820312 L 161.929688 163.144531 L 162.867188 160.398438 C 165.328125 159.761719 167.773438 158.941406 170.160156 157.953125 C 172.472656 156.992188 174.753906 155.851562 176.953125 154.5625 L 179.554688 155.84375 L 184.992188 161.277344 C 185.644531 161.929688 186.699219 161.929688 187.355469 161.277344 L 203.285156 145.34375 C 203.9375 144.691406 203.9375 143.636719 203.285156 142.984375 L 197.851562 137.542969 L 196.570312 134.941406 C 199.171875 130.511719 201.132812 125.78125 202.40625 120.855469 L 205.148438 119.921875 L 212.835938 119.921875 C 213.757812 119.921875 214.507812 119.175781 214.507812 118.25 L 214.507812 95.714844 C 214.507812 94.789062 213.757812 94.042969 212.835938 94.042969 Z M 148.992188 75.722656 C 166.230469 75.722656 180.253906 89.742188 180.253906 106.980469 C 180.253906 124.214844 166.230469 138.242188 148.992188 138.242188 C 135.253906 138.242188 123.09375 129.195312 119.101562 116.132812 C 126.246094 108.363281 130.765625 98.140625 131.234375 86.890625 C 136.835938 86.191406 141.339844 81.914062 142.386719 76.421875 C 144.550781 75.960938 146.765625 75.722656 148.992188 75.722656 Z M 131.277344 83.511719 L 131.277344 64.453125 C 135.816406 65.246094 139.277344 69.214844 139.277344 73.976562 C 139.277344 78.742188 135.816406 82.714844 131.277344 83.511719 Z M 47.09375 29.800781 C 47.09375 23.691406 52.0625 18.71875 58.171875 18.703125 C 58.347656 18.710938 59.378906 18.734375 61.050781 18.734375 C 71.625 18.734375 97.082031 17.78125 105.070312 8.957031 C 106.335938 7.558594 107.136719 6.019531 107.46875 4.359375 C 112.25 6.972656 123.207031 14.613281 123.207031 29.800781 L 123.207031 30.371094 C 123.207031 36.488281 118.230469 41.46875 112.109375 41.46875 L 58.191406 41.46875 C 52.074219 41.46875 47.09375 36.488281 47.09375 30.371094 Z M 31.023438 73.980469 C 31.023438 69.214844 34.484375 65.246094 39.023438 64.453125 L 39.023438 83.511719 C 34.484375 82.714844 31.023438 78.742188 31.023438 73.980469 Z M 42.367188 84.960938 L 42.367188 62.636719 C 42.367188 62.636719 42.363281 62.632812 42.363281 62.632812 L 42.363281 53.46875 C 42.363281 47.832031 43.425781 42.410156 45.527344 37.296875 C 47.984375 41.769531 52.738281 44.8125 58.191406 44.8125 L 112.109375 44.8125 C 117.5625 44.8125 122.320312 41.773438 124.773438 37.300781 C 126.875 42.410156 127.9375 47.832031 127.9375 53.46875 L 127.9375 84.941406 C 127.9375 108.53125 108.746094 127.722656 85.15625 127.722656 C 73.722656 127.722656 62.976562 123.273438 54.898438 115.195312 C 46.820312 107.117188 42.371094 96.378906 42.367188 84.960938 Z M 85.15625 131.066406 C 92.503906 131.066406 99.457031 129.335938 105.628906 126.265625 L 105.628906 142.761719 C 105.628906 143.4375 106.035156 144.046875 106.660156 144.304688 C 106.746094 144.339844 106.828125 144.367188 106.917969 144.386719 C 107.449219 144.535156 107.976562 144.683594 108.492188 144.839844 C 106.980469 151.902344 102.390625 157.835938 95.921875 161.097656 C 95.839844 161.007812 95.757812 160.910156 95.667969 160.820312 C 94.449219 159.621094 92.832031 158.957031 91.121094 158.957031 L 79.179688 158.957031 C 77.273438 158.957031 75.558594 159.789062 74.378906 161.097656 C 68 157.855469 63.324219 151.808594 61.8125 144.839844 C 62.316406 144.6875 62.832031 144.539062 63.359375 144.394531 C 63.496094 144.363281 63.632812 144.316406 63.761719 144.25 C 64.320312 143.964844 64.675781 143.390625 64.675781 142.761719 L 64.675781 126.296875 C 70.960938 129.417969 77.929688 131.066406 85.15625 131.066406 Z M 79.347656 171.71875 L 90.953125 171.71875 L 98.6875 207.394531 L 85.152344 220.890625 L 71.613281 207.394531 Z M 91.121094 168.375 L 79.179688 168.375 C 77.46875 168.375 76.078125 167.011719 76.078125 165.339844 C 76.078125 163.664062 77.46875 162.300781 79.179688 162.300781 L 91.121094 162.300781 C 92.832031 162.300781 94.226562 163.664062 94.226562 165.339844 C 94.226562 167.011719 92.832031 168.375 91.121094 168.375 Z M 58.617188 145.863281 C 60.410156 153.769531 65.589844 160.40625 72.863281 164.078125 C 72.777344 164.484375 72.734375 164.90625 72.734375 165.339844 C 72.734375 167.75 74.09375 169.855469 76.097656 170.9375 L 68.152344 207.578125 C 68.03125 208.136719 68.203125 208.714844 68.605469 209.117188 L 81.105469 221.578125 L 38.066406 221.578125 L 38.066406 188.519531 C 38.066406 187.597656 37.320312 186.847656 36.394531 186.847656 C 35.472656 186.847656 34.722656 187.597656 34.722656 188.519531 L 34.722656 221.578125 L 3.378906 221.578125 C 4.066406 187.078125 26.011719 157.015625 58.617188 145.863281 Z M 166.921875 221.578125 L 135.578125 221.578125 L 135.578125 188.519531 C 135.578125 187.597656 134.828125 186.847656 133.90625 186.847656 C 132.984375 186.847656 132.234375 187.597656 132.234375 188.519531 L 132.234375 221.578125 L 89.195312 221.578125 L 101.695312 209.117188 C 102.097656 208.714844 102.269531 208.136719 102.148438 207.578125 L 94.203125 170.9375 C 96.207031 169.855469 97.566406 167.75 97.566406 165.339844 C 97.566406 164.910156 97.523438 164.488281 97.441406 164.078125 C 104.710938 160.40625 109.890625 153.773438 111.683594 145.863281 C 126.5 150.929688 139.109375 159.898438 148.527344 171.417969 C 148.65625 171.75 148.882812 172.03125 149.179688 172.222656 C 160.097656 185.925781 166.554688 203.117188 166.921875 221.578125 Z M 211.164062 116.578125 L 204.875 116.578125 C 204.691406 116.578125 204.507812 116.609375 204.335938 116.667969 L 200.46875 117.980469 C 199.925781 118.164062 199.515625 118.617188 199.378906 119.175781 C 198.128906 124.382812 196.066406 129.367188 193.242188 133.988281 C 192.941406 134.476562 192.914062 135.085938 193.167969 135.597656 L 194.972656 139.265625 C 195.054688 139.429688 195.160156 139.582031 195.289062 139.710938 L 199.738281 144.164062 L 186.171875 157.730469 L 181.722656 153.28125 C 181.59375 153.152344 181.445312 153.046875 181.277344 152.964844 L 177.613281 151.160156 C 177.097656 150.90625 176.492188 150.933594 176.003906 151.234375 C 173.710938 152.632812 171.3125 153.855469 168.878906 154.863281 C 166.367188 155.902344 163.777344 156.746094 161.1875 157.371094 C 160.628906 157.507812 160.179688 157.917969 159.996094 158.457031 L 158.675781 162.324219 C 158.617188 162.5 158.585938 162.683594 158.585938 162.867188 L 158.585938 169.152344 L 150.882812 169.152344 C 140.402344 156.398438 126.664062 147.082031 110.914062 142.089844 C 110.289062 141.886719 109.636719 141.6875 108.96875 141.496094 L 108.96875 124.429688 C 111.660156 122.800781 114.164062 120.90625 116.460938 118.785156 C 121.371094 132.335938 134.375 141.585938 148.992188 141.585938 C 168.074219 141.585938 183.597656 126.0625 183.597656 106.980469 C 183.597656 87.902344 168.074219 72.378906 148.992188 72.378906 C 146.835938 72.378906 144.6875 72.578125 142.578125 72.972656 C 142.105469 66.820312 137.339844 61.855469 131.277344 61.074219 L 131.277344 58.265625 C 133.089844 57.605469 134.941406 57.042969 136.796875 56.597656 C 137.355469 56.464844 137.808594 56.054688 137.992188 55.507812 L 139.304688 51.640625 C 139.363281 51.46875 139.394531 51.285156 139.394531 51.101562 L 139.394531 44.8125 L 158.585938 44.8125 L 158.585938 51.097656 C 158.585938 51.28125 158.617188 51.464844 158.675781 51.636719 L 159.996094 55.507812 C 160.179688 56.046875 160.628906 56.457031 161.1875 56.589844 C 166.40625 57.851562 171.390625 59.917969 176 62.730469 C 176.484375 63.03125 177.09375 63.058594 177.609375 62.804688 L 181.273438 61 C 181.441406 60.917969 181.589844 60.808594 181.71875 60.679688 L 186.171875 56.230469 L 199.742188 69.800781 L 195.292969 74.253906 C 195.160156 74.382812 195.054688 74.535156 194.972656 74.699219 L 193.167969 78.367188 C 192.917969 78.878906 192.945312 79.488281 193.242188 79.976562 C 196.066406 84.597656 198.128906 89.578125 199.382812 94.785156 C 199.515625 95.34375 199.925781 95.792969 200.46875 95.976562 L 204.335938 97.296875 C 204.507812 97.355469 204.691406 97.386719 204.875 97.386719 L 211.164062 97.386719 Z M 211.164062 116.578125 " fill-opacity="1" fill-rule="nonzero"/></g></svg>