<svg xmlns="http://www.w3.org/2000/svg" xmlns:xlink="http://www.w3.org/1999/xlink" width="236" zoomAndPan="magnify" viewBox="0 0 177 161.249994" height="215" preserveAspectRatio="xMidYMid meet" version="1.0"><defs><clipPath id="282b077e07"><path d="M 0.410156 0.121094 L 83.550781 0.121094 L 83.550781 160.449219 L 0.410156 160.449219 Z M 0.410156 0.121094 " clip-rule="nonzero"/></clipPath><clipPath id="8ebacfdc88"><path d="M 67.503906 0.121094 C 65.34375 0.121094 63.1875 0.144531 61.03125 0.210938 C 52.320312 0.472656 46.589844 6.824219 45.761719 15.167969 C 45.511719 17.699219 46.109375 19.636719 49.195312 19.636719 C 49.3125 19.636719 49.433594 19.632812 49.5625 19.625 L 49.800781 19.636719 C 56.445312 19.648438 62.96875 19.65625 69.496094 19.675781 C 69.597656 19.675781 69.699219 19.675781 69.800781 19.675781 C 70.199219 19.675781 70.601562 19.671875 71.003906 19.671875 C 72.011719 19.671875 73.023438 19.683594 74.027344 19.765625 C 75.96875 19.917969 76.65625 20.929688 76.527344 23.183594 C 76.4375 24.820312 75.351562 25.871094 73.707031 25.875 L 40.289062 26.011719 C 40.175781 26.011719 40.066406 26.011719 39.953125 26.011719 C 39.5625 26.011719 39.171875 26.007812 38.777344 26.007812 C 37.605469 26.007812 36.429688 26.03125 35.289062 26.222656 C 27.667969 27.480469 22.609375 33.078125 22.085938 40.792969 C 21.863281 44.039062 22.84375 45.183594 25.984375 45.1875 L 67.875 45.269531 C 68.117188 45.269531 68.359375 45.269531 68.601562 45.269531 C 68.828125 45.269531 69.054688 45.269531 69.28125 45.269531 C 71 45.269531 72.714844 45.273438 74.421875 45.40625 C 75.867188 45.519531 76.601562 46.71875 76.546875 48.359375 C 76.484375 50.070312 75.761719 50.957031 74.207031 51.09375 C 73.453125 51.160156 72.691406 51.164062 71.929688 51.164062 C 71.816406 51.164062 71.699219 51.164062 71.582031 51.164062 C 71.542969 51.164062 71.503906 51.164062 71.464844 51.164062 L 33.03125 51.1875 C 29.574219 51.195312 26.109375 51.207031 22.65625 51.371094 C 14.757812 51.75 8.441406 59.03125 8.519531 67.191406 C 8.539062 69.101562 9.980469 70.5625 11.898438 70.699219 L 14.402344 70.765625 C 32.984375 70.769531 51.5625 70.765625 70.144531 70.773438 C 71.535156 70.773438 72.929688 70.824219 74.316406 70.9375 C 75.796875 71.058594 76.550781 72.03125 76.539062 73.648438 C 76.523438 75.332031 75.570312 76.65625 74.21875 76.742188 L 70.046875 76.84375 C 57.703125 76.832031 45.363281 76.796875 33.023438 76.796875 C 31.636719 76.796875 30.25 76.796875 28.867188 76.800781 L 9.652344 76.96875 C 5.554688 77.042969 2.15625 79.675781 0.917969 83.546875 C -0.386719 87.628906 0.863281 91.585938 4.164062 94.191406 C 6.433594 95.984375 9.039062 96.328125 11.785156 96.328125 C 11.792969 96.328125 11.800781 96.328125 11.804688 96.328125 L 63.964844 96.328125 C 67.386719 96.328125 70.808594 96.367188 74.226562 96.453125 C 74.78125 96.464844 75.554688 96.628906 75.835938 97.011719 C 76.792969 98.324219 76.765625 99.824219 76.21875 101.324219 C 75.75 102.621094 74.722656 102.765625 73.527344 102.765625 C 73.527344 102.765625 73.523438 102.765625 73.519531 102.765625 L 15.992188 102.765625 C 14.558594 102.765625 13.128906 102.84375 11.695312 102.851562 C 10.019531 102.859375 9.386719 103.398438 8.839844 105.308594 C 8.636719 106.015625 8.589844 106.808594 8.644531 107.550781 C 9.214844 115.136719 15.820312 121.652344 23.464844 121.761719 C 30.464844 121.863281 37.46875 121.875 44.46875 121.875 C 46.707031 121.875 48.945312 121.875 51.183594 121.875 C 54.078125 121.875 56.972656 121.875 59.867188 121.886719 L 73.828125 122.023438 C 75.6875 122.058594 76.589844 123.023438 76.574219 124.757812 C 76.558594 126.726562 75.601562 127.8125 73.761719 127.820312 L 33.660156 127.878906 C 30.71875 127.886719 27.777344 127.890625 24.839844 128.019531 C 23.152344 128.09375 22.242188 129.019531 22.128906 130.753906 C 21.871094 134.878906 22.890625 138.664062 25.671875 141.800781 C 28.894531 145.4375 32.980469 147.339844 37.878906 147.378906 L 54.109375 147.484375 C 60.671875 147.511719 67.234375 147.5 73.800781 147.542969 C 75.578125 147.554688 76.449219 148.425781 76.511719 150.027344 C 76.597656 152.0625 75.695312 153.273438 73.914062 153.453125 L 71.292969 153.550781 C 64.25 153.558594 57.207031 153.550781 50.164062 153.566406 C 49.496094 153.570312 48.8125 153.613281 48.15625 153.746094 C 46.652344 154.050781 45.683594 155.375 45.738281 156.953125 C 45.796875 158.761719 46.648438 159.847656 48.25 160.082031 L 50.265625 160.234375 C 55.191406 160.246094 60.113281 160.261719 65.039062 160.261719 C 67.476562 160.261719 69.910156 160.257812 72.347656 160.25 C 73.6875 160.242188 75.066406 160.15625 76.363281 159.847656 C 81.5 158.617188 84.605469 153.175781 83.21875 147.984375 C 82.214844 144.222656 78.714844 140.625 74.324219 140.625 C 74.234375 140.625 74.148438 140.628906 74.0625 140.628906 C 73.765625 140.640625 73.472656 140.644531 73.179688 140.644531 C 72.121094 140.644531 71.0625 140.597656 70.003906 140.59375 L 37.898438 140.519531 C 35.921875 140.511719 34.125 139.90625 32.558594 138.746094 C 31.238281 137.769531 29.933594 136.726562 29.433594 134.691406 C 30.101562 134.691406 30.6875 134.691406 31.246094 134.691406 C 31.527344 134.691406 31.800781 134.691406 32.074219 134.691406 L 69.316406 134.675781 C 71.300781 134.675781 73.300781 134.679688 75.257812 134.421875 C 82.179688 133.519531 85.445312 126.136719 82.265625 120.195312 C 80.382812 116.683594 77.347656 114.933594 73.34375 114.933594 C 73.292969 114.933594 73.238281 114.933594 73.183594 114.933594 L 58.261719 115.042969 C 48.085938 115.039062 37.910156 114.988281 27.734375 114.988281 C 27.089844 114.988281 26.441406 114.988281 25.796875 114.988281 C 25.789062 114.988281 25.785156 114.988281 25.78125 114.988281 C 23.382812 114.988281 21.109375 114.652344 19.105469 113.257812 C 17.828125 112.367188 16.808594 111.265625 16.191406 109.605469 C 18.21875 109.605469 20.148438 109.605469 22.042969 109.605469 C 22.988281 109.605469 23.929688 109.605469 24.871094 109.605469 L 72.851562 109.601562 C 78.921875 109.597656 83.953125 105.578125 83.460938 98.605469 C 83.203125 94.949219 79.65625 89.519531 74.71875 89.519531 C 74.609375 89.519531 74.496094 89.523438 74.386719 89.527344 C 74.253906 89.535156 74.121094 89.539062 73.988281 89.539062 C 73.132812 89.539062 72.269531 89.421875 71.414062 89.421875 C 71.410156 89.421875 71.410156 89.421875 71.410156 89.421875 L 12.566406 89.460938 C 12.5625 89.460938 12.558594 89.460938 12.558594 89.460938 C 11.492188 89.460938 10.40625 89.414062 9.363281 89.21875 C 8.019531 88.96875 7.195312 87.800781 7.234375 86.457031 C 7.273438 85.121094 8.152344 83.980469 9.484375 83.789062 C 10.65625 83.617188 11.855469 83.582031 13.046875 83.582031 L 70.8125 83.578125 C 72.242188 83.578125 73.675781 83.5 75.09375 83.359375 C 79.722656 82.890625 83.207031 78.820312 83.503906 74.015625 C 83.769531 69.683594 79.917969 64.582031 75.558594 64.09375 C 74.335938 63.960938 73.097656 63.867188 71.871094 63.863281 L 17.683594 63.835938 C 17.1875 63.835938 16.691406 63.789062 16.007812 63.753906 C 16.554688 61.984375 17.550781 60.804688 18.804688 59.804688 C 21.035156 58.03125 23.675781 57.902344 26.339844 57.902344 C 26.394531 57.902344 26.453125 57.902344 26.507812 57.902344 L 57.304688 57.976562 C 63.070312 57.976562 68.839844 57.96875 74.605469 57.785156 C 78.175781 57.671875 80.863281 55.832031 82.46875 52.625 C 85.890625 45.796875 80.234375 38.367188 73.828125 38.367188 C 73.773438 38.367188 73.71875 38.367188 73.660156 38.371094 C 68.394531 38.476562 63.128906 38.511719 57.863281 38.511719 C 48.847656 38.511719 39.828125 38.410156 30.816406 38.390625 C 30.445312 38.390625 30.074219 38.324219 29.519531 38.269531 C 30.734375 35.335938 32.808594 33.667969 35.613281 33.019531 C 36.753906 32.757812 37.957031 32.730469 39.152344 32.730469 C 39.441406 32.730469 39.734375 32.734375 40.019531 32.734375 C 40.050781 32.734375 40.082031 32.734375 40.113281 32.734375 L 73.414062 32.730469 C 78.753906 32.714844 82.257812 29.804688 83.289062 24.699219 C 84.503906 18.703125 80.304688 13.148438 74.214844 12.96875 C 70.859375 12.871094 67.503906 12.851562 64.148438 12.851562 C 62.59375 12.851562 61.042969 12.855469 59.488281 12.855469 C 58.472656 12.855469 57.457031 12.851562 56.441406 12.847656 C 56.101562 12.847656 55.765625 12.847656 55.410156 12.847656 C 54.777344 12.847656 54.089844 12.847656 53.25 12.847656 C 53.675781 11.925781 53.851562 11.253906 54.246094 10.746094 C 55.425781 9.210938 56.824219 7.804688 58.777344 7.445312 C 60.902344 7.058594 63.089844 6.878906 65.257812 6.835938 C 70.308594 6.738281 75.363281 6.835938 80.410156 6.738281 C 82.386719 6.699219 83.445312 5.484375 83.46875 3.652344 C 83.496094 1.546875 82.558594 0.324219 80.46875 0.285156 C 76.152344 0.21875 71.828125 0.121094 67.503906 0.121094 Z M 67.503906 0.121094 " clip-rule="nonzero"/></clipPath><clipPath id="627053f0dd"><path d="M 91.960938 153.367188 L 98.882812 153.367188 L 98.882812 160.316406 L 91.960938 160.316406 Z M 91.960938 153.367188 " clip-rule="nonzero"/></clipPath><clipPath id="539cf37d5e"><path d="M 95.371094 153.367188 C 93.632812 153.367188 91.980469 155.132812 91.988281 156.996094 C 91.992188 158.941406 93.46875 160.296875 95.578125 160.308594 L 95.628906 160.308594 C 95.644531 160.308594 95.65625 160.308594 95.675781 160.308594 C 97.320312 160.285156 98.914062 158.539062 98.878906 156.796875 C 98.84375 154.8125 97.371094 153.371094 95.375 153.367188 C 95.375 153.367188 95.371094 153.367188 95.371094 153.367188 Z M 95.371094 153.367188 " clip-rule="nonzero"/></clipPath><clipPath id="fc6d3d44ed"><path d="M 92.011719 76.710938 L 98.753906 76.710938 L 98.753906 83.609375 L 92.011719 83.609375 Z M 92.011719 76.710938 " clip-rule="nonzero"/></clipPath><clipPath id="0cfa6ec889"><path d="M 95.273438 83.601562 C 97.304688 83.613281 98.738281 82.210938 98.753906 80.199219 C 98.773438 78.019531 97.621094 76.757812 95.59375 76.734375 C 93.59375 76.714844 92.066406 78.230469 92.039062 80.257812 C 92.011719 81.945312 93.609375 83.59375 95.273438 83.601562 " clip-rule="nonzero"/></clipPath><clipPath id="26b3c7f719"><path d="M 91.875 0 L 103.234375 0 L 103.234375 6.789062 L 91.875 6.789062 Z M 91.875 0 " clip-rule="nonzero"/></clipPath><clipPath id="ef92df6097"><path d="M 94.542969 6.632812 C 96.546875 6.785156 98.570312 6.804688 100.574219 6.6875 C 102.082031 6.601562 103.226562 4.976562 103.230469 3.273438 C 103.230469 1.703125 102.242188 0.511719 100.621094 0.265625 C 99.648438 0.121094 98.65625 0.0898438 97.597656 0 C 96.597656 0.09375 95.527344 0.136719 94.472656 0.304688 C 93.195312 0.503906 91.875 2.019531 91.875 3.179688 C 91.875 4.855469 93.03125 6.515625 94.542969 6.632812 " clip-rule="nonzero"/></clipPath><clipPath id="633e18f1e7"><path d="M 91.917969 51.132812 L 101.550781 51.132812 L 101.550781 57.972656 L 91.917969 57.972656 Z M 91.917969 51.132812 " clip-rule="nonzero"/></clipPath><clipPath id="e996b58f5c"><path d="M 94.855469 57.84375 C 96.140625 57.976562 97.46875 57.988281 98.75 57.824219 C 100.511719 57.597656 101.535156 56.320312 101.535156 54.675781 C 101.53125 52.8125 100.527344 51.625 98.679688 51.335938 C 97.976562 51.226562 97.265625 51.183594 96.753906 51.132812 C 95.996094 51.171875 95.433594 51.152344 94.886719 51.238281 C 93.191406 51.507812 91.9375 53.023438 91.945312 54.753906 C 91.949219 56.242188 93.195312 57.671875 94.855469 57.84375 " clip-rule="nonzero"/></clipPath><clipPath id="177d325fc0"><path d="M 91.457031 19.609375 L 104.28125 19.609375 L 104.28125 38.328125 L 91.457031 38.328125 Z M 91.457031 19.609375 " clip-rule="nonzero"/></clipPath><clipPath id="556eb67549"><path d="M 99.664062 38 C 100.117188 38.304688 100.890625 38.394531 101.429688 38.253906 C 104.148438 37.542969 105.027344 35.082031 103.363281 32.816406 C 102.738281 31.960938 101.898438 31.261719 101.125 30.523438 C 99.460938 28.945312 99.46875 28.96875 101.117188 27.476562 C 101.941406 26.730469 102.75 25.960938 103.464844 25.113281 C 103.878906 24.621094 104.085938 23.957031 104.28125 23.574219 C 104.121094 21.964844 103.714844 20.800781 102.433594 20.148438 C 101.0625 19.449219 99.613281 19.4375 98.546875 20.515625 C 96.28125 22.789062 94.148438 25.199219 92.027344 27.609375 C 91.332031 28.394531 91.347656 29.378906 91.988281 30.257812 C 94.15625 33.222656 96.582031 35.949219 99.664062 38 " clip-rule="nonzero"/></clipPath><clipPath id="f8df65815f"><path d="M 93.375 121.617188 L 107.515625 121.617188 L 107.515625 140.140625 L 93.375 140.140625 Z M 93.375 121.617188 " clip-rule="nonzero"/></clipPath><clipPath id="0f8caf9399"><path d="M 107.109375 137.742188 C 107.582031 136.527344 107.136719 135.136719 105.886719 134.03125 L 103.242188 131.808594 C 102.492188 131.210938 102.523438 130.6875 103.21875 130.070312 C 104.257812 129.144531 105.308594 128.226562 106.253906 127.210938 C 106.765625 126.660156 107.066406 125.914062 107.460938 125.257812 C 107.289062 122.324219 104.648438 120.738281 102.214844 122.125 C 101.738281 122.398438 101.304688 122.761719 100.878906 123.117188 C 98.882812 124.757812 96.867188 126.375 94.921875 128.074219 C 93.21875 129.558594 92.910156 131.574219 94.328125 132.871094 C 96.902344 135.230469 99.613281 137.441406 102.296875 139.675781 C 102.632812 139.957031 103.160156 140.128906 103.601562 140.128906 C 105.261719 140.140625 106.53125 139.234375 107.109375 137.742188 " clip-rule="nonzero"/></clipPath><clipPath id="dbb30926eb"><path d="M 103 73.652344 L 109.9375 73.652344 L 109.9375 86.789062 L 103 86.789062 Z M 103 73.652344 " clip-rule="nonzero"/></clipPath><clipPath id="3e5709a2cf"><path d="M 103.050781 76.585938 L 103.011719 80.277344 C 103.011719 81.390625 102.972656 82.507812 103.050781 83.617188 C 103.1875 85.605469 105.523438 87.273438 107.179688 86.625 C 108.949219 85.929688 109.835938 84.628906 109.855469 82.695312 L 109.855469 80.191406 C 109.875 80.191406 109.890625 80.1875 109.910156 80.1875 C 109.851562 78.917969 109.855469 77.644531 109.714844 76.382812 C 109.542969 74.832031 107.925781 73.652344 106.167969 73.679688 C 104.351562 73.710938 103.148438 74.792969 103.050781 76.585938 " clip-rule="nonzero"/></clipPath><clipPath id="440bdd5705"><path d="M 92 102.289062 L 117.828125 102.289062 L 117.828125 109.121094 L 92 109.121094 Z M 92 102.289062 " clip-rule="nonzero"/></clipPath><clipPath id="17f885786e"><path d="M 94.785156 108.917969 L 96.800781 109.089844 C 102.085938 109.117188 107.371094 109.136719 112.652344 109.109375 C 113.632812 109.101562 114.640625 108.957031 115.585938 108.703125 C 117.253906 108.253906 117.945312 107.164062 117.777344 105.519531 C 117.585938 103.644531 116.625 102.515625 114.894531 102.480469 C 111.484375 102.40625 108.070312 102.460938 104.65625 102.460938 L 104.65625 102.351562 C 103.382812 102.296875 102.113281 102.28125 100.839844 102.300781 C 98.816406 102.332031 96.789062 102.3125 94.773438 102.46875 C 93.265625 102.582031 91.976562 104.300781 92.019531 105.859375 C 92.070312 107.496094 93.164062 108.71875 94.785156 108.917969 " clip-rule="nonzero"/></clipPath><clipPath id="cf6b306216"><path d="M 114.011719 70.292969 L 120.867188 70.292969 L 120.867188 90.109375 L 114.011719 90.109375 Z M 114.011719 70.292969 " clip-rule="nonzero"/></clipPath><clipPath id="4af1846597"><path d="M 120.855469 73.316406 C 120.839844 71.714844 119.417969 70.339844 117.789062 70.296875 C 115.882812 70.242188 114.289062 71.488281 114.246094 73.1875 L 114.039062 85.214844 C 114.03125 85.847656 114.039062 86.492188 114.144531 87.113281 C 114.421875 88.824219 116.382812 90.253906 118.152344 90.085938 C 119.59375 89.949219 120.828125 88.417969 120.847656 86.65625 L 120.855469 79.984375 C 120.859375 79.984375 120.859375 79.984375 120.863281 79.984375 L 120.859375 73.3125 " clip-rule="nonzero"/></clipPath><clipPath id="068ea4af36"><path d="M 110.367188 21.589844 L 123.785156 21.589844 L 123.785156 37.296875 L 110.367188 37.296875 Z M 110.367188 21.589844 " clip-rule="nonzero"/></clipPath><clipPath id="3988d73330"><path d="M 117.398438 23.15625 L 113.355469 28.613281 C 112.535156 29.738281 111.664062 30.832031 110.984375 32.035156 C 109.960938 33.84375 110.351562 35.445312 111.910156 36.542969 C 113.546875 37.695312 114.984375 37.550781 116.417969 35.898438 C 117.53125 34.613281 118.503906 33.199219 119.511719 31.824219 C 120.800781 30.0625 122.199219 28.363281 123.296875 26.488281 C 124.582031 24.289062 122.855469 21.589844 120.332031 21.589844 C 119.210938 21.589844 118.175781 22.121094 117.398438 23.15625 " clip-rule="nonzero"/></clipPath><clipPath id="99e0ed5097"><path d="M 117.230469 121.558594 L 124.039062 121.558594 L 124.039062 140.183594 L 117.230469 140.183594 Z M 117.230469 121.558594 " clip-rule="nonzero"/></clipPath><clipPath id="f99c4b4ccf"><path d="M 123.980469 124.742188 C 123.921875 122.914062 122.355469 121.5625 120.472656 121.582031 C 118.761719 121.601562 117.351562 123.015625 117.320312 124.792969 L 117.296875 130.28125 C 117.292969 132.621094 117.195312 134.972656 117.320312 137.308594 C 117.414062 139.132812 118.914062 140.210938 120.914062 140.171875 C 122.523438 140.140625 123.917969 138.828125 123.972656 137.144531 C 124.039062 135.078125 123.988281 133.007812 123.988281 130.945312 L 123.996094 130.945312 C 123.996094 128.875 124.042969 126.808594 123.984375 124.746094 " clip-rule="nonzero"/></clipPath><clipPath id="290c7e2bf8"><path d="M 109.300781 0.144531 L 127.3125 0.144531 L 127.3125 6.792969 L 109.300781 6.792969 Z M 109.300781 0.144531 " clip-rule="nonzero"/></clipPath><clipPath id="e9a6144f2a"><path d="M 112.433594 6.679688 C 114.683594 6.855469 116.957031 6.71875 119.21875 6.71875 L 119.21875 6.738281 C 120.769531 6.75 122.320312 6.800781 123.867188 6.738281 C 126.539062 6.628906 127.921875 4.640625 127.035156 2.101562 C 126.746094 1.277344 126.273438 0.34375 125.171875 0.316406 C 120.925781 0.226562 116.671875 0.128906 112.421875 0.144531 C 110.742188 0.152344 109.84375 0.992188 109.46875 2.425781 C 108.855469 4.757812 109.949219 6.484375 112.433594 6.679688 " clip-rule="nonzero"/></clipPath><clipPath id="84de30a861"><path d="M 105.699219 153.535156 L 131.21875 153.535156 L 131.21875 160.273438 L 105.699219 160.273438 Z M 105.699219 153.535156 " clip-rule="nonzero"/></clipPath><clipPath id="d00dd8c7e6"><path d="M 127.695312 153.546875 L 111.238281 153.554688 C 110.089844 153.558594 108.921875 153.632812 107.8125 153.886719 C 107.242188 154.019531 106.585938 154.5 106.289062 155.011719 C 104.84375 157.496094 106.296875 160.117188 109.203125 160.203125 C 112.300781 160.292969 115.40625 160.222656 118.503906 160.222656 L 118.503906 160.226562 L 127.6875 160.21875 C 129.5625 160.199219 131.207031 158.59375 131.203125 156.878906 C 131.199219 154.863281 129.835938 153.550781 127.695312 153.546875 " clip-rule="nonzero"/></clipPath><clipPath id="9789a216b3"><path d="M 107.757812 51.164062 L 132.941406 51.164062 L 132.941406 57.863281 L 107.757812 57.863281 Z M 107.757812 51.164062 " clip-rule="nonzero"/></clipPath><clipPath id="f2b599d923"><path d="M 110.890625 57.832031 C 114.230469 57.894531 117.570312 57.847656 120.910156 57.847656 L 120.910156 57.835938 C 123.929688 57.828125 126.957031 57.890625 129.976562 57.78125 C 130.703125 57.753906 131.585938 57.300781 132.09375 56.761719 C 133.121094 55.675781 133.113281 54.289062 132.472656 52.976562 C 131.847656 51.707031 130.695312 51.183594 129.339844 51.171875 L 120.75 51.195312 C 117.449219 51.230469 114.144531 51.230469 110.851562 51.363281 C 108.996094 51.433594 107.757812 52.878906 107.78125 54.652344 C 107.804688 56.207031 109.257812 57.800781 110.890625 57.832031 " clip-rule="nonzero"/></clipPath><clipPath id="87349e10a6"><path d="M 125.1875 74.539062 L 131.894531 74.539062 L 131.894531 85.789062 L 125.1875 85.789062 Z M 125.1875 74.539062 " clip-rule="nonzero"/></clipPath><clipPath id="6eec3b53aa"><path d="M 131.863281 77.324219 C 131.769531 75.667969 130.492188 74.660156 128.449219 74.566406 C 126.9375 74.5 125.582031 75.511719 125.433594 77.011719 C 125.261719 78.75 125.207031 80.496094 125.214844 82.242188 C 125.21875 84.390625 126.609375 85.742188 128.707031 85.769531 C 130.414062 85.796875 131.789062 84.316406 131.875 82.324219 L 131.878906 80.0625 C 131.875 80.0625 131.875 80.0625 131.867188 80.0625 L 131.859375 77.324219 " clip-rule="nonzero"/></clipPath><clipPath id="0e583812d3"><path d="M 130.023438 121.601562 L 136.867188 121.601562 L 136.867188 140.128906 L 130.023438 140.128906 Z M 130.023438 121.601562 " clip-rule="nonzero"/></clipPath><clipPath id="6bc9316226"><path d="M 133.683594 121.605469 C 131.828125 121.542969 130.175781 122.777344 130.132812 124.535156 C 130.023438 128.707031 129.988281 132.878906 130.074219 137.050781 C 130.121094 139.15625 132.144531 140.484375 134.203125 140.019531 C 135.789062 139.660156 136.671875 138.675781 136.75 136.878906 C 136.839844 134.816406 136.769531 132.75 136.769531 130.683594 L 136.808594 130.683594 C 136.824219 128.695312 136.871094 126.707031 136.8125 124.722656 C 136.757812 122.941406 135.410156 121.660156 133.683594 121.605469 " clip-rule="nonzero"/></clipPath><clipPath id="597c51380b"><path d="M 123.542969 102.902344 L 138.75 102.902344 L 138.75 109.476562 L 123.542969 109.476562 Z M 123.542969 102.902344 " clip-rule="nonzero"/></clipPath><clipPath id="6fbe995e00"><path d="M 135.734375 102.957031 L 131.207031 102.945312 C 131.207031 102.929688 131.207031 102.914062 131.207031 102.902344 L 127.152344 102.902344 C 126.914062 102.902344 126.675781 102.917969 126.4375 102.941406 C 124.976562 103.074219 123.613281 104.566406 123.546875 106.097656 C 123.46875 107.832031 124.460938 109.316406 126.128906 109.378906 C 129.453125 109.511719 132.792969 109.511719 136.113281 109.359375 C 137.878906 109.277344 138.851562 107.746094 138.734375 105.847656 C 138.625 104.109375 137.539062 103.023438 135.734375 102.957031 " clip-rule="nonzero"/></clipPath><clipPath id="7d4cf9e6ea"><path d="M 129.5625 19.710938 L 142.625 19.710938 L 142.625 38.414062 L 129.5625 38.414062 Z M 129.5625 19.710938 " clip-rule="nonzero"/></clipPath><clipPath id="04ded89a1c"><path d="M 130.144531 33.515625 C 129.0625 35.246094 129.707031 37 131.421875 37.945312 C 132.980469 38.800781 134.289062 38.347656 135.429688 37.257812 C 137.5 35.285156 139.535156 33.277344 141.507812 31.207031 C 142.011719 30.675781 142.222656 29.859375 142.621094 29.066406 C 142.222656 28.238281 142.027344 27.371094 141.5 26.8125 C 139.539062 24.738281 137.492188 22.730469 135.425781 20.753906 C 134.0625 19.449219 132.1875 19.378906 131.019531 20.476562 C 129.46875 21.933594 129.277344 23.757812 130.59375 25.351562 C 131.273438 26.175781 132.042969 26.929688 132.832031 27.65625 C 134.132812 28.84375 134.128906 28.992188 132.914062 30.277344 C 131.9375 31.308594 130.886719 32.324219 130.144531 33.515625 " clip-rule="nonzero"/></clipPath><clipPath id="acb57ec30c"><path d="M 136.003906 76.714844 L 143.097656 76.714844 L 143.097656 83.539062 L 136.003906 83.539062 Z M 136.003906 76.714844 " clip-rule="nonzero"/></clipPath><clipPath id="0caa25688b"><path d="M 139.859375 76.742188 C 138.074219 76.652344 136.121094 78.292969 136.011719 79.980469 C 135.90625 81.550781 137.9375 83.464844 139.761719 83.515625 C 141.257812 83.550781 143.023438 81.679688 143.078125 79.996094 C 143.125 78.457031 141.511719 76.824219 139.859375 76.742188 " clip-rule="nonzero"/></clipPath><clipPath id="27337ea783"><path d="M 147.335938 70.234375 L 154.136719 70.234375 L 154.136719 90.03125 L 147.335938 90.03125 Z M 147.335938 70.234375 " clip-rule="nonzero"/></clipPath><clipPath id="61d36facd8"><path d="M 147.433594 87.011719 C 147.613281 88.71875 149.292969 90.101562 150.890625 90.007812 C 152.261719 89.921875 154.21875 88.695312 154.132812 86.691406 C 154.035156 84.511719 154.109375 82.324219 154.109375 80.140625 L 154.074219 80.140625 L 154.046875 73.46875 C 154.03125 72.023438 153.242188 70.96875 151.917969 70.480469 C 149.632812 69.628906 147.527344 71.0625 147.445312 73.675781 C 147.339844 76.929688 147.390625 80.1875 147.378906 83.445312 C 147.378906 84.632812 147.3125 85.835938 147.433594 87.011719 " clip-rule="nonzero"/></clipPath><clipPath id="5fc95f48c3"><path d="M 139.339844 51.167969 L 164.46875 51.167969 L 164.46875 57.894531 L 139.339844 57.894531 Z M 139.339844 51.167969 " clip-rule="nonzero"/></clipPath><clipPath id="967738298d"><path d="M 139.34375 54.746094 C 139.382812 56.355469 140.84375 57.785156 142.683594 57.820312 C 145.820312 57.882812 148.960938 57.839844 152.101562 57.839844 L 152.101562 57.832031 C 155.121094 57.828125 158.144531 57.730469 161.160156 57.867188 C 162.789062 57.941406 164.488281 55.890625 164.449219 54.554688 C 164.394531 52.65625 163.210938 51.199219 161.3125 51.195312 C 155.070312 51.1875 148.832031 51.242188 142.59375 51.363281 C 140.601562 51.402344 139.296875 52.90625 139.34375 54.746094 " clip-rule="nonzero"/></clipPath><clipPath id="9215f0091d"><path d="M 144.203125 102.902344 L 159.636719 102.902344 L 159.636719 109.683594 L 144.203125 109.683594 Z M 144.203125 102.902344 " clip-rule="nonzero"/></clipPath><clipPath id="63cd6e7dc1"><path d="M 152.058594 109.683594 L 152.058594 109.546875 C 153.609375 109.480469 155.164062 109.566406 156.703125 109.457031 C 158.589844 109.320312 159.90625 107.429688 159.554688 105.554688 C 159.304688 104.210938 158.222656 102.960938 157.136719 102.949219 C 153.800781 102.921875 150.464844 102.910156 147.128906 103.003906 C 145.472656 103.050781 144.257812 104.445312 144.226562 106.035156 C 144.195312 107.808594 145.246094 109.191406 146.953125 109.386719 C 148.644531 109.578125 150.355469 109.59375 152.058594 109.683594 " clip-rule="nonzero"/></clipPath><clipPath id="a7e5b7c062"><path d="M 146.6875 121.417969 L 161 121.417969 L 161 140.1875 L 146.6875 140.1875 Z M 146.6875 121.417969 " clip-rule="nonzero"/></clipPath><clipPath id="3eef99a34f"><path d="M 160.070312 128.84375 C 157.367188 126.460938 154.554688 124.195312 151.734375 121.949219 C 150.84375 121.242188 149.773438 121.398438 148.804688 121.933594 C 146.578125 123.167969 146.289062 125.808594 148.226562 127.640625 C 149.144531 128.511719 150.167969 129.277344 151.140625 130.09375 C 151.824219 130.667969 151.953125 131.136719 151.074219 131.75 C 150.007812 132.496094 148.976562 133.34375 148.09375 134.292969 C 147.484375 134.941406 147.148438 135.84375 146.6875 136.636719 C 146.933594 138.054688 147.398438 139.074219 148.542969 139.640625 C 149.683594 140.203125 150.929688 140.519531 152.03125 139.628906 L 159.792969 133.144531 C 160.058594 132.921875 160.253906 132.597656 160.429688 132.289062 C 161.214844 130.933594 161.246094 129.882812 160.070312 128.84375 " clip-rule="nonzero"/></clipPath><clipPath id="b6ff12c50c"><path d="M 158.289062 74.484375 L 165.078125 74.484375 L 165.078125 85.921875 L 158.289062 85.921875 Z M 158.289062 74.484375 " clip-rule="nonzero"/></clipPath><clipPath id="6c600abb75"><path d="M 165.03125 80.128906 C 165.03125 79.214844 165.082031 78.300781 165.019531 77.394531 C 164.90625 75.683594 163.558594 74.542969 161.703125 74.511719 C 160.054688 74.484375 158.503906 75.734375 158.414062 77.320312 C 158.3125 79.101562 158.277344 80.886719 158.371094 82.664062 C 158.460938 84.441406 160.203125 85.984375 161.816406 85.898438 C 163.472656 85.808594 165 84.175781 165.066406 82.390625 L 165.070312 80.128906 C 165.058594 80.128906 165.042969 80.128906 165.03125 80.128906 " clip-rule="nonzero"/></clipPath><clipPath id="242f5570af"><path d="M 169.367188 76.753906 L 176.417969 76.753906 L 176.417969 83.566406 L 169.367188 83.566406 Z M 169.367188 76.753906 " clip-rule="nonzero"/></clipPath><clipPath id="d8304495ff"><path d="M 173.007812 76.753906 C 171.015625 76.753906 169.421875 78.234375 169.394531 80.125 C 169.371094 81.945312 170.984375 83.519531 172.925781 83.566406 C 172.945312 83.566406 172.960938 83.566406 172.976562 83.566406 C 174.570312 83.566406 176.355469 81.75 176.394531 80.058594 C 176.394531 80.046875 176.394531 80.039062 176.394531 80.027344 L 176.394531 79.976562 C 176.382812 78.375 174.78125 76.796875 173.105469 76.753906 C 173.074219 76.753906 173.042969 76.753906 173.011719 76.753906 Z M 173.007812 76.753906 " clip-rule="nonzero"/></clipPath></defs><g clip-path="url(#282b077e07)"><g clip-path="url(#8ebacfdc88)"><path fill="#4afaab" d="M 0.410156 0.121094 L 83.550781 0.121094 L 83.550781 160.210938 L 0.410156 160.210938 Z M 0.410156 0.121094 " fill-opacity="1" fill-rule="nonzero"/></g></g><g clip-path="url(#627053f0dd)"><g clip-path="url(#539cf37d5e)"><path fill="#4afaab" d="M 91.988281 153.367188 L 98.882812 153.367188 L 98.882812 160.316406 L 91.988281 160.316406 Z M 91.988281 153.367188 " fill-opacity="1" fill-rule="nonzero"/></g></g><g clip-path="url(#fc6d3d44ed)"><g clip-path="url(#0cfa6ec889)"><path fill="#4afaab" d="M 92.039062 76.734375 L 98.753906 76.734375 L 98.753906 83.609375 L 92.039062 83.609375 Z M 92.039062 76.734375 " fill-opacity="1" fill-rule="nonzero"/></g></g><g clip-path="url(#26b3c7f719)"><g clip-path="url(#ef92df6097)"><path fill="#4afaab" d="M 91.875 0 L 103.234375 0 L 103.234375 6.761719 L 91.875 6.761719 Z M 91.875 0 " fill-opacity="1" fill-rule="nonzero"/></g></g><g clip-path="url(#633e18f1e7)"><g clip-path="url(#e996b58f5c)"><path fill="#4afaab" d="M 91.945312 51.132812 L 101.523438 51.132812 L 101.523438 57.945312 L 91.945312 57.945312 Z M 91.945312 51.132812 " fill-opacity="1" fill-rule="nonzero"/></g></g><g clip-path="url(#177d325fc0)"><g clip-path="url(#556eb67549)"><path fill="#4afaab" d="M 91.503906 19.660156 L 104.28125 19.660156 L 104.28125 38.328125 L 91.503906 38.328125 Z M 91.503906 19.660156 " fill-opacity="1" fill-rule="nonzero"/></g></g><g clip-path="url(#f8df65815f)"><g clip-path="url(#0f8caf9399)"><path fill="#4afaab" d="M 93.429688 121.617188 L 107.460938 121.617188 L 107.460938 140.140625 L 93.429688 140.140625 Z M 93.429688 121.617188 " fill-opacity="1" fill-rule="nonzero"/></g></g><g clip-path="url(#dbb30926eb)"><g clip-path="url(#3e5709a2cf)"><path fill="#4afaab" d="M 103.003906 73.679688 L 109.910156 73.679688 L 109.910156 86.761719 L 103.003906 86.761719 Z M 103.003906 73.679688 " fill-opacity="1" fill-rule="nonzero"/></g></g><g clip-path="url(#440bdd5705)"><g clip-path="url(#17f885786e)"><path fill="#4afaab" d="M 92.019531 102.289062 L 117.800781 102.289062 L 117.800781 109.121094 L 92.019531 109.121094 Z M 92.019531 102.289062 " fill-opacity="1" fill-rule="nonzero"/></g></g><g clip-path="url(#cf6b306216)"><g clip-path="url(#4af1846597)"><path fill="#4afaab" d="M 114.039062 70.292969 L 120.867188 70.292969 L 120.867188 90.109375 L 114.039062 90.109375 Z M 114.039062 70.292969 " fill-opacity="1" fill-rule="nonzero"/></g></g><g clip-path="url(#068ea4af36)"><g clip-path="url(#3988d73330)"><path fill="#4afaab" d="M 110.417969 21.589844 L 123.730469 21.589844 L 123.730469 37.296875 L 110.417969 37.296875 Z M 110.417969 21.589844 " fill-opacity="1" fill-rule="nonzero"/></g></g><g clip-path="url(#99e0ed5097)"><g clip-path="url(#f99c4b4ccf)"><path fill="#4afaab" d="M 117.257812 121.582031 L 124.011719 121.582031 L 124.011719 140.183594 L 117.257812 140.183594 Z M 117.257812 121.582031 " fill-opacity="1" fill-rule="nonzero"/></g></g><g clip-path="url(#290c7e2bf8)"><g clip-path="url(#e9a6144f2a)"><path fill="#4afaab" d="M 109.300781 0.144531 L 127.3125 0.144531 L 127.3125 6.769531 L 109.300781 6.769531 Z M 109.300781 0.144531 " fill-opacity="1" fill-rule="nonzero"/></g></g><g clip-path="url(#84de30a861)"><g clip-path="url(#d00dd8c7e6)"><path fill="#4afaab" d="M 105.726562 153.535156 L 131.191406 153.535156 L 131.191406 160.25 L 105.726562 160.25 Z M 105.726562 153.535156 " fill-opacity="1" fill-rule="nonzero"/></g></g><g clip-path="url(#9789a216b3)"><g clip-path="url(#f2b599d923)"><path fill="#4afaab" d="M 107.78125 51.164062 L 132.914062 51.164062 L 132.914062 57.863281 L 107.78125 57.863281 Z M 107.78125 51.164062 " fill-opacity="1" fill-rule="nonzero"/></g></g><g clip-path="url(#87349e10a6)"><g clip-path="url(#6eec3b53aa)"><path fill="#4afaab" d="M 125.214844 74.566406 L 131.894531 74.566406 L 131.894531 85.761719 L 125.214844 85.761719 Z M 125.214844 74.566406 " fill-opacity="1" fill-rule="nonzero"/></g></g><g clip-path="url(#0e583812d3)"><g clip-path="url(#6bc9316226)"><path fill="#4afaab" d="M 130.023438 121.601562 L 136.839844 121.601562 L 136.839844 140.101562 L 130.023438 140.101562 Z M 130.023438 121.601562 " fill-opacity="1" fill-rule="nonzero"/></g></g><g clip-path="url(#597c51380b)"><g clip-path="url(#6fbe995e00)"><path fill="#4afaab" d="M 123.542969 102.902344 L 138.75 102.902344 L 138.75 109.476562 L 123.542969 109.476562 Z M 123.542969 102.902344 " fill-opacity="1" fill-rule="nonzero"/></g></g><g clip-path="url(#7d4cf9e6ea)"><g clip-path="url(#04ded89a1c)"><path fill="#4afaab" d="M 129.613281 19.710938 L 142.625 19.710938 L 142.625 38.414062 L 129.613281 38.414062 Z M 129.613281 19.710938 " fill-opacity="1" fill-rule="nonzero"/></g></g><g clip-path="url(#acb57ec30c)"><g clip-path="url(#0caa25688b)"><path fill="#4afaab" d="M 136.003906 76.738281 L 143.070312 76.738281 L 143.070312 83.515625 L 136.003906 83.515625 Z M 136.003906 76.738281 " fill-opacity="1" fill-rule="nonzero"/></g></g><g clip-path="url(#27337ea783)"><g clip-path="url(#61d36facd8)"><path fill="#4afaab" d="M 147.359375 70.234375 L 154.136719 70.234375 L 154.136719 90.003906 L 147.359375 90.003906 Z M 147.359375 70.234375 " fill-opacity="1" fill-rule="nonzero"/></g></g><g clip-path="url(#5fc95f48c3)"><g clip-path="url(#967738298d)"><path fill="#4afaab" d="M 139.339844 51.195312 L 164.445312 51.195312 L 164.445312 57.867188 L 139.339844 57.867188 Z M 139.339844 51.195312 " fill-opacity="1" fill-rule="nonzero"/></g></g><g clip-path="url(#9215f0091d)"><g clip-path="url(#63cd6e7dc1)"><path fill="#4afaab" d="M 144.226562 102.929688 L 159.609375 102.929688 L 159.609375 109.683594 L 144.226562 109.683594 Z M 144.226562 102.929688 " fill-opacity="1" fill-rule="nonzero"/></g></g><g clip-path="url(#a7e5b7c062)"><g clip-path="url(#3eef99a34f)"><path fill="#4afaab" d="M 146.6875 121.476562 L 160.988281 121.476562 L 160.988281 140.1875 L 146.6875 140.1875 Z M 146.6875 121.476562 " fill-opacity="1" fill-rule="nonzero"/></g></g><g clip-path="url(#b6ff12c50c)"><g clip-path="url(#6c600abb75)"><path fill="#4afaab" d="M 158.316406 74.511719 L 165.078125 74.511719 L 165.078125 85.898438 L 158.316406 85.898438 Z M 158.316406 74.511719 " fill-opacity="1" fill-rule="nonzero"/></g></g><g clip-path="url(#242f5570af)"><g clip-path="url(#d8304495ff)"><path fill="#4afaab" d="M 169.394531 76.753906 L 176.390625 76.753906 L 176.390625 83.566406 L 169.394531 83.566406 Z M 169.394531 76.753906 " fill-opacity="1" fill-rule="nonzero"/></g></g></svg>