<svg xmlns="http://www.w3.org/2000/svg" xmlns:xlink="http://www.w3.org/1999/xlink" width="500" zoomAndPan="magnify" viewBox="0 0 375 374.999991" height="500" preserveAspectRatio="xMidYMid meet" version="1.0"><defs><g/><clipPath id="3458a7c335"><path d="M 21.296875 37.570312 L 69.109375 37.570312 L 69.109375 129.769531 L 21.296875 129.769531 Z M 21.296875 37.570312 " clip-rule="nonzero"/></clipPath><clipPath id="2e0723274e"><path d="M 59.878906 37.570312 C 58.636719 37.570312 57.394531 37.582031 56.15625 37.621094 C 51.144531 37.773438 47.851562 41.425781 47.375 46.222656 C 47.230469 47.679688 47.574219 48.792969 49.347656 48.792969 C 49.417969 48.792969 49.488281 48.789062 49.5625 48.785156 L 49.699219 48.792969 C 53.519531 48.800781 57.269531 48.804688 61.023438 48.816406 C 61.082031 48.816406 61.140625 48.816406 61.199219 48.816406 C 61.429688 48.816406 61.660156 48.8125 61.890625 48.8125 C 62.472656 48.8125 63.050781 48.820312 63.628906 48.867188 C 64.746094 48.953125 65.144531 49.535156 65.070312 50.832031 C 65.015625 51.773438 64.390625 52.375 63.445312 52.378906 L 44.230469 52.457031 C 44.164062 52.457031 44.101562 52.457031 44.035156 52.457031 C 43.808594 52.457031 43.585938 52.457031 43.359375 52.457031 C 42.683594 52.457031 42.007812 52.46875 41.351562 52.578125 C 36.972656 53.300781 34.0625 56.523438 33.761719 60.957031 C 33.632812 62.824219 34.195312 63.484375 36 63.484375 L 60.09375 63.53125 C 60.230469 63.53125 60.371094 63.53125 60.511719 63.53125 C 60.640625 63.53125 60.769531 63.53125 60.902344 63.53125 C 61.886719 63.53125 62.875 63.535156 63.855469 63.613281 C 64.6875 63.675781 65.113281 64.367188 65.078125 65.308594 C 65.042969 66.292969 64.625 66.804688 63.734375 66.882812 C 63.300781 66.921875 62.863281 66.921875 62.425781 66.921875 C 62.359375 66.921875 62.289062 66.921875 62.222656 66.921875 C 62.199219 66.921875 62.179688 66.921875 62.15625 66.921875 L 40.054688 66.9375 C 38.066406 66.941406 36.074219 66.949219 34.089844 67.042969 C 29.546875 67.257812 25.914062 71.445312 25.957031 76.140625 C 25.96875 77.238281 26.796875 78.078125 27.902344 78.15625 L 29.34375 78.195312 C 40.027344 78.199219 50.710938 78.195312 61.398438 78.199219 C 62.195312 78.199219 63 78.226562 63.796875 78.292969 C 64.648438 78.363281 65.082031 78.921875 65.074219 79.851562 C 65.066406 80.820312 64.519531 81.582031 63.738281 81.632812 L 61.339844 81.691406 C 54.242188 81.683594 47.148438 81.664062 40.050781 81.664062 C 39.253906 81.664062 38.457031 81.664062 37.660156 81.664062 L 26.609375 81.761719 C 24.253906 81.804688 22.296875 83.316406 21.585938 85.542969 C 20.839844 87.894531 21.554688 90.167969 23.453125 91.667969 C 24.757812 92.699219 26.257812 92.894531 27.839844 92.894531 C 27.84375 92.894531 27.847656 92.894531 27.847656 92.894531 L 57.84375 92.894531 C 59.8125 92.894531 61.777344 92.917969 63.742188 92.964844 C 64.0625 92.972656 64.507812 93.070312 64.667969 93.289062 C 65.222656 94.042969 65.203125 94.90625 64.890625 95.769531 C 64.621094 96.511719 64.03125 96.597656 63.34375 96.597656 C 63.34375 96.597656 63.339844 96.597656 63.335938 96.597656 L 30.253906 96.597656 C 29.433594 96.597656 28.609375 96.640625 27.785156 96.644531 C 26.820312 96.648438 26.457031 96.960938 26.140625 98.058594 C 26.027344 98.464844 26 98.921875 26.03125 99.347656 C 26.359375 103.710938 30.15625 107.457031 34.554688 107.519531 C 38.578125 107.578125 42.605469 107.585938 46.632812 107.585938 C 47.917969 107.585938 49.207031 107.585938 50.492188 107.585938 C 52.15625 107.585938 53.820312 107.585938 55.488281 107.59375 L 63.515625 107.671875 C 64.585938 107.691406 65.101562 108.246094 65.09375 109.242188 C 65.085938 110.375 64.535156 111 63.476562 111.003906 L 40.417969 111.039062 C 38.726562 111.042969 37.03125 111.042969 35.34375 111.117188 C 34.375 111.160156 33.847656 111.695312 33.785156 112.691406 C 33.636719 115.0625 34.222656 117.242188 35.820312 119.042969 C 37.675781 121.136719 40.023438 122.230469 42.84375 122.253906 L 52.175781 122.3125 C 55.949219 122.328125 59.722656 122.320312 63.5 122.347656 C 64.519531 122.355469 65.023438 122.851562 65.058594 123.773438 C 65.105469 124.945312 64.589844 125.644531 63.5625 125.746094 L 62.058594 125.800781 C 58.007812 125.804688 53.957031 125.800781 49.90625 125.808594 C 49.523438 125.8125 49.128906 125.835938 48.753906 125.914062 C 47.886719 126.089844 47.332031 126.851562 47.363281 127.757812 C 47.394531 128.800781 47.886719 129.421875 48.804688 129.558594 L 49.964844 129.644531 C 52.796875 129.652344 55.628906 129.660156 58.460938 129.660156 C 59.863281 129.660156 61.261719 129.660156 62.664062 129.652344 C 63.433594 129.648438 64.226562 129.601562 64.972656 129.421875 C 67.929688 128.714844 69.714844 125.585938 68.917969 122.601562 C 68.339844 120.4375 66.324219 118.367188 63.800781 118.367188 C 63.75 118.367188 63.699219 118.371094 63.648438 118.371094 C 63.480469 118.375 63.3125 118.378906 63.144531 118.378906 C 62.535156 118.378906 61.925781 118.351562 61.316406 118.347656 L 42.855469 118.308594 C 41.714844 118.304688 40.683594 117.957031 39.78125 117.289062 C 39.023438 116.726562 38.273438 116.125 37.988281 114.957031 C 38.371094 114.957031 38.707031 114.957031 39.027344 114.957031 C 39.1875 114.957031 39.347656 114.957031 39.503906 114.957031 L 60.921875 114.949219 C 62.0625 114.945312 63.210938 114.949219 64.339844 114.800781 C 68.316406 114.28125 70.195312 110.035156 68.367188 106.621094 C 67.285156 104.601562 65.539062 103.59375 63.238281 103.59375 C 63.207031 103.59375 63.175781 103.59375 63.144531 103.59375 L 54.5625 103.65625 C 48.710938 103.65625 42.859375 103.625 37.007812 103.625 C 36.636719 103.625 36.265625 103.625 35.894531 103.625 C 35.890625 103.625 35.886719 103.625 35.886719 103.625 C 34.507812 103.625 33.199219 103.433594 32.046875 102.628906 C 31.3125 102.121094 30.726562 101.484375 30.371094 100.53125 C 31.535156 100.53125 32.644531 100.53125 33.734375 100.53125 C 34.28125 100.53125 34.820312 100.53125 35.363281 100.53125 L 62.953125 100.527344 C 66.445312 100.527344 69.339844 98.214844 69.054688 94.203125 C 68.90625 92.101562 66.867188 88.980469 64.027344 88.980469 C 63.964844 88.980469 63.902344 88.980469 63.835938 88.984375 C 63.761719 88.988281 63.683594 88.988281 63.609375 88.988281 C 63.117188 88.988281 62.621094 88.921875 62.125 88.921875 L 28.285156 88.945312 C 28.285156 88.945312 28.28125 88.945312 28.28125 88.945312 C 27.667969 88.945312 27.042969 88.917969 26.445312 88.808594 C 25.671875 88.664062 25.195312 87.992188 25.21875 87.21875 C 25.242188 86.449219 25.746094 85.792969 26.511719 85.683594 C 27.1875 85.585938 27.878906 85.566406 28.5625 85.566406 L 61.78125 85.5625 C 62.601562 85.5625 63.425781 85.519531 64.242188 85.4375 C 66.902344 85.167969 68.910156 82.828125 69.078125 80.0625 C 69.230469 77.574219 67.015625 74.636719 64.511719 74.359375 C 63.808594 74.28125 63.097656 74.226562 62.390625 74.226562 L 31.230469 74.210938 C 30.945312 74.210938 30.660156 74.183594 30.265625 74.164062 C 30.578125 73.144531 31.152344 72.46875 31.875 71.890625 C 33.15625 70.871094 34.675781 70.796875 36.207031 70.796875 C 36.238281 70.796875 36.269531 70.796875 36.304688 70.796875 L 54.011719 70.839844 C 57.328125 70.839844 60.648438 70.835938 63.960938 70.730469 C 66.015625 70.664062 67.558594 69.609375 68.484375 67.761719 C 70.453125 63.835938 67.199219 59.5625 63.515625 59.5625 C 63.484375 59.5625 63.453125 59.5625 63.417969 59.566406 C 60.390625 59.625 57.363281 59.648438 54.332031 59.648438 C 49.148438 59.648438 43.964844 59.589844 38.78125 59.578125 C 38.566406 59.578125 38.351562 59.539062 38.035156 59.507812 C 38.734375 57.820312 39.925781 56.863281 41.539062 56.488281 C 42.195312 56.335938 42.886719 56.320312 43.574219 56.320312 C 43.742188 56.320312 43.910156 56.324219 44.074219 56.324219 C 44.089844 56.324219 44.109375 56.324219 44.128906 56.324219 L 63.277344 56.320312 C 66.347656 56.3125 68.363281 54.640625 68.957031 51.703125 C 69.652344 48.257812 67.242188 45.058594 63.738281 44.957031 C 61.808594 44.902344 59.878906 44.890625 57.949219 44.890625 C 57.054688 44.890625 56.164062 44.894531 55.269531 44.894531 C 54.683594 44.894531 54.101562 44.890625 53.515625 44.886719 C 53.320312 44.886719 53.128906 44.886719 52.925781 44.886719 C 52.558594 44.886719 52.164062 44.886719 51.679688 44.886719 C 51.925781 44.355469 52.027344 43.972656 52.253906 43.679688 C 52.933594 42.796875 53.738281 41.988281 54.859375 41.78125 C 56.082031 41.558594 57.339844 41.457031 58.589844 41.433594 C 61.492188 41.375 64.398438 41.429688 67.300781 41.375 C 68.4375 41.351562 69.046875 40.652344 69.058594 39.601562 C 69.074219 38.390625 68.535156 37.6875 67.335938 37.664062 C 64.851562 37.625 62.363281 37.570312 59.878906 37.570312 Z M 59.878906 37.570312 " clip-rule="nonzero"/></clipPath><clipPath id="61930003cf"><path d="M 73.941406 125.695312 L 77.921875 125.695312 L 77.921875 129.691406 L 73.941406 129.691406 Z M 73.941406 125.695312 " clip-rule="nonzero"/></clipPath><clipPath id="78f2c9115c"><path d="M 75.902344 125.695312 C 74.902344 125.695312 73.957031 126.710938 73.957031 127.78125 C 73.960938 128.902344 74.808594 129.679688 76.023438 129.6875 L 76.050781 129.6875 C 76.0625 129.6875 76.070312 129.6875 76.078125 129.6875 C 77.023438 129.675781 77.941406 128.667969 77.921875 127.667969 C 77.902344 126.527344 77.054688 125.699219 75.90625 125.695312 C 75.90625 125.695312 75.90625 125.695312 75.902344 125.695312 Z M 75.902344 125.695312 " clip-rule="nonzero"/></clipPath><clipPath id="ddc1a15b7f"><path d="M 73.972656 81.613281 L 77.851562 81.613281 L 77.851562 85.582031 L 73.972656 85.582031 Z M 73.972656 81.613281 " clip-rule="nonzero"/></clipPath><clipPath id="39c1e0128e"><path d="M 75.847656 85.578125 C 77.015625 85.582031 77.839844 84.777344 77.851562 83.621094 C 77.859375 82.367188 77.199219 81.640625 76.03125 81.628906 C 74.882812 81.617188 74.003906 82.488281 73.988281 83.652344 C 73.972656 84.625 74.890625 85.570312 75.847656 85.574219 " clip-rule="nonzero"/></clipPath><clipPath id="c7bcf32895"><path d="M 73.894531 37.5 L 80.425781 37.5 L 80.425781 41.402344 L 73.894531 41.402344 Z M 73.894531 37.5 " clip-rule="nonzero"/></clipPath><clipPath id="8bdf10b424"><path d="M 75.429688 41.316406 C 76.578125 41.402344 77.742188 41.414062 78.898438 41.347656 C 79.761719 41.296875 80.421875 40.359375 80.421875 39.382812 C 80.425781 38.480469 79.855469 37.796875 78.925781 37.652344 C 78.363281 37.570312 77.792969 37.550781 77.183594 37.5 C 76.609375 37.554688 75.992188 37.578125 75.386719 37.675781 C 74.652344 37.789062 73.894531 38.660156 73.894531 39.328125 C 73.894531 40.292969 74.558594 41.246094 75.429688 41.316406 " clip-rule="nonzero"/></clipPath><clipPath id="b69ffbab5c"><path d="M 73.917969 66.902344 L 79.457031 66.902344 L 79.457031 70.835938 L 73.917969 70.835938 Z M 73.917969 66.902344 " clip-rule="nonzero"/></clipPath><clipPath id="f7f6ba6ce7"><path d="M 75.609375 70.765625 C 76.347656 70.839844 77.109375 70.847656 77.847656 70.753906 C 78.859375 70.621094 79.449219 69.886719 79.449219 68.941406 C 79.449219 67.871094 78.871094 67.1875 77.808594 67.023438 C 77.402344 66.960938 76.992188 66.933594 76.699219 66.902344 C 76.261719 66.925781 75.941406 66.917969 75.625 66.964844 C 74.648438 67.121094 73.929688 67.992188 73.933594 68.988281 C 73.9375 69.84375 74.652344 70.664062 75.609375 70.765625 " clip-rule="nonzero"/></clipPath><clipPath id="0fe62577eb"><path d="M 73.652344 48.777344 L 81.027344 48.777344 L 81.027344 59.539062 L 73.652344 59.539062 Z M 73.652344 48.777344 " clip-rule="nonzero"/></clipPath><clipPath id="a29b2567b7"><path d="M 78.371094 59.351562 C 78.632812 59.527344 79.078125 59.578125 79.386719 59.496094 C 80.953125 59.089844 81.457031 57.675781 80.5 56.371094 C 80.140625 55.878906 79.660156 55.476562 79.210938 55.054688 C 78.257812 54.144531 78.257812 54.160156 79.207031 53.300781 C 79.683594 52.871094 80.148438 52.429688 80.558594 51.941406 C 80.796875 51.65625 80.914062 51.277344 81.027344 51.058594 C 80.9375 50.132812 80.703125 49.460938 79.964844 49.085938 C 79.175781 48.683594 78.34375 48.679688 77.730469 49.296875 C 76.429688 50.605469 75.199219 51.992188 73.980469 53.375 C 73.582031 53.828125 73.589844 54.394531 73.957031 54.902344 C 75.207031 56.605469 76.601562 58.171875 78.371094 59.351562 " clip-rule="nonzero"/></clipPath><clipPath id="bbcbaf49d0"><path d="M 74.757812 107.4375 L 82.886719 107.4375 L 82.886719 118.089844 L 74.757812 118.089844 Z M 74.757812 107.4375 " clip-rule="nonzero"/></clipPath><clipPath id="54ea230636"><path d="M 82.652344 116.710938 C 82.925781 116.011719 82.671875 115.210938 81.953125 114.578125 L 80.429688 113.296875 C 80 112.957031 80.015625 112.652344 80.417969 112.296875 C 81.015625 111.765625 81.621094 111.238281 82.164062 110.65625 C 82.457031 110.339844 82.628906 109.910156 82.855469 109.53125 C 82.757812 107.84375 81.238281 106.933594 79.839844 107.730469 C 79.566406 107.886719 79.316406 108.097656 79.070312 108.300781 C 77.925781 109.246094 76.765625 110.175781 75.648438 111.148438 C 74.667969 112.003906 74.488281 113.164062 75.304688 113.910156 C 76.785156 115.265625 78.34375 116.539062 79.886719 117.824219 C 80.078125 117.984375 80.382812 118.082031 80.636719 118.082031 C 81.59375 118.089844 82.320312 117.570312 82.652344 116.710938 " clip-rule="nonzero"/></clipPath><clipPath id="da1ba24c8e"><path d="M 80.277344 79.855469 L 84.28125 79.855469 L 84.28125 87.410156 L 80.277344 87.410156 Z M 80.277344 79.855469 " clip-rule="nonzero"/></clipPath><clipPath id="d055d84ac1"><path d="M 80.320312 81.542969 L 80.300781 83.664062 C 80.300781 84.304688 80.277344 84.949219 80.320312 85.585938 C 80.398438 86.726562 81.742188 87.6875 82.695312 87.316406 C 83.710938 86.914062 84.222656 86.167969 84.234375 85.054688 L 84.234375 83.613281 C 84.246094 83.613281 84.253906 83.613281 84.265625 83.613281 C 84.230469 82.882812 84.234375 82.148438 84.152344 81.425781 C 84.054688 80.53125 83.125 79.855469 82.113281 79.871094 C 81.066406 79.890625 80.375 80.511719 80.320312 81.542969 " clip-rule="nonzero"/></clipPath><clipPath id="d67cd10eb7"><path d="M 73.960938 96.324219 L 88.816406 96.324219 L 88.816406 100.253906 L 73.960938 100.253906 Z M 73.960938 96.324219 " clip-rule="nonzero"/></clipPath><clipPath id="f69d93010d"><path d="M 75.566406 100.136719 L 76.726562 100.234375 C 79.765625 100.25 82.804688 100.261719 85.84375 100.242188 C 86.40625 100.242188 86.984375 100.15625 87.527344 100.011719 C 88.488281 99.753906 88.886719 99.125 88.789062 98.179688 C 88.679688 97.101562 88.125 96.453125 87.132812 96.433594 C 85.167969 96.390625 83.207031 96.421875 81.242188 96.421875 L 81.242188 96.359375 C 80.511719 96.328125 79.78125 96.316406 79.050781 96.328125 C 77.886719 96.347656 76.71875 96.335938 75.558594 96.425781 C 74.695312 96.492188 73.953125 97.480469 73.976562 98.375 C 74.003906 99.316406 74.636719 100.019531 75.566406 100.136719 " clip-rule="nonzero"/></clipPath><clipPath id="31e2350b5a"><path d="M 86.625 77.921875 L 90.566406 77.921875 L 90.566406 89.320312 L 86.625 89.320312 Z M 86.625 77.921875 " clip-rule="nonzero"/></clipPath><clipPath id="726fa770b0"><path d="M 90.558594 79.660156 C 90.550781 78.742188 89.734375 77.949219 88.796875 77.925781 C 87.699219 77.894531 86.785156 78.609375 86.757812 79.589844 L 86.640625 86.503906 C 86.632812 86.867188 86.640625 87.238281 86.699219 87.597656 C 86.859375 88.578125 87.988281 89.402344 89.003906 89.304688 C 89.835938 89.226562 90.542969 88.347656 90.554688 87.332031 L 90.558594 83.496094 C 90.5625 83.496094 90.5625 83.496094 90.5625 83.496094 L 90.5625 79.660156 " clip-rule="nonzero"/></clipPath><clipPath id="5e7493decc"><path d="M 84.527344 49.914062 L 92.242188 49.914062 L 92.242188 58.949219 L 84.527344 58.949219 Z M 84.527344 49.914062 " clip-rule="nonzero"/></clipPath><clipPath id="52bf697432"><path d="M 88.570312 50.816406 L 86.246094 53.957031 C 85.777344 54.601562 85.273438 55.230469 84.882812 55.921875 C 84.292969 56.960938 84.519531 57.882812 85.414062 58.515625 C 86.355469 59.175781 87.183594 59.09375 88.007812 58.144531 C 88.648438 57.40625 89.207031 56.59375 89.785156 55.800781 C 90.527344 54.785156 91.332031 53.8125 91.960938 52.730469 C 92.703125 51.46875 91.710938 49.917969 90.257812 49.914062 C 89.613281 49.914062 89.019531 50.222656 88.570312 50.816406 " clip-rule="nonzero"/></clipPath><clipPath id="8c1541a156"><path d="M 88.476562 107.402344 L 92.390625 107.402344 L 92.390625 118.113281 L 88.476562 118.113281 Z M 88.476562 107.402344 " clip-rule="nonzero"/></clipPath><clipPath id="6aabaf9b52"><path d="M 92.355469 109.234375 C 92.324219 108.183594 91.421875 107.40625 90.339844 107.417969 C 89.355469 107.429688 88.546875 108.242188 88.527344 109.261719 L 88.515625 112.417969 C 88.511719 113.765625 88.453125 115.117188 88.527344 116.460938 C 88.582031 117.507812 89.441406 118.128906 90.59375 118.109375 C 91.515625 118.089844 92.320312 117.335938 92.351562 116.367188 C 92.390625 115.179688 92.363281 113.988281 92.363281 112.800781 C 92.367188 111.613281 92.394531 110.421875 92.359375 109.234375 " clip-rule="nonzero"/></clipPath><clipPath id="3d26d29515"><path d="M 83.914062 37.582031 L 94.273438 37.582031 L 94.273438 41.40625 L 83.914062 41.40625 Z M 83.914062 37.582031 " clip-rule="nonzero"/></clipPath><clipPath id="2a1bdb6cf7"><path d="M 85.71875 41.339844 C 87.011719 41.441406 88.316406 41.363281 89.617188 41.363281 L 89.617188 41.375 C 90.507812 41.382812 91.402344 41.410156 92.292969 41.375 C 93.828125 41.3125 94.621094 40.167969 94.113281 38.707031 C 93.945312 38.234375 93.675781 37.695312 93.042969 37.683594 C 90.597656 37.628906 88.152344 37.574219 85.707031 37.585938 C 84.742188 37.589844 84.226562 38.070312 84.011719 38.894531 C 83.65625 40.238281 84.289062 41.230469 85.71875 41.339844 " clip-rule="nonzero"/></clipPath><clipPath id="838e6c84ac"><path d="M 81.84375 125.792969 L 96.519531 125.792969 L 96.519531 129.667969 L 81.84375 129.667969 Z M 81.84375 125.792969 " clip-rule="nonzero"/></clipPath><clipPath id="0bb7626c78"><path d="M 94.492188 125.796875 L 85.027344 125.804688 C 84.367188 125.808594 83.695312 125.847656 83.058594 125.996094 C 82.730469 126.070312 82.355469 126.347656 82.183594 126.640625 C 81.351562 128.070312 82.1875 129.578125 83.859375 129.625 C 85.640625 129.679688 87.425781 129.636719 89.207031 129.636719 L 89.207031 129.640625 L 94.488281 129.636719 C 95.566406 129.625 96.511719 128.703125 96.507812 127.714844 C 96.507812 126.554688 95.722656 125.800781 94.492188 125.796875 " clip-rule="nonzero"/></clipPath><clipPath id="6158e2b61c"><path d="M 83.027344 66.921875 L 97.507812 66.921875 L 97.507812 70.777344 L 83.027344 70.777344 Z M 83.027344 66.921875 " clip-rule="nonzero"/></clipPath><clipPath id="5a4a245eac"><path d="M 84.828125 70.757812 C 86.75 70.792969 88.667969 70.765625 90.589844 70.765625 L 90.589844 70.757812 C 92.328125 70.753906 94.066406 70.792969 95.804688 70.726562 C 96.222656 70.710938 96.730469 70.453125 97.019531 70.140625 C 97.613281 69.515625 97.609375 68.71875 97.238281 67.964844 C 96.882812 67.234375 96.21875 66.933594 95.4375 66.925781 L 90.5 66.941406 C 88.597656 66.960938 86.699219 66.960938 84.804688 67.039062 C 83.738281 67.078125 83.027344 67.910156 83.042969 68.925781 C 83.054688 69.824219 83.890625 70.738281 84.828125 70.757812 " clip-rule="nonzero"/></clipPath><clipPath id="d64191b1f9"><path d="M 93.050781 80.363281 L 96.90625 80.363281 L 96.90625 86.832031 L 93.050781 86.832031 Z M 93.050781 80.363281 " clip-rule="nonzero"/></clipPath><clipPath id="4a466bc5f0"><path d="M 96.890625 81.964844 C 96.835938 81.015625 96.101562 80.433594 94.925781 80.382812 C 94.054688 80.34375 93.277344 80.925781 93.191406 81.789062 C 93.09375 82.785156 93.0625 83.792969 93.066406 84.796875 C 93.066406 86.03125 93.867188 86.808594 95.074219 86.824219 C 96.054688 86.835938 96.84375 85.988281 96.894531 84.839844 L 96.898438 83.539062 C 96.894531 83.539062 96.894531 83.539062 96.890625 83.539062 L 96.886719 81.964844 " clip-rule="nonzero"/></clipPath><clipPath id="02862668bb"><path d="M 95.832031 107.429688 L 99.765625 107.429688 L 99.765625 118.082031 L 95.832031 118.082031 Z M 95.832031 107.429688 " clip-rule="nonzero"/></clipPath><clipPath id="0453d9c29b"><path d="M 97.9375 107.429688 C 96.867188 107.394531 95.921875 108.105469 95.894531 109.117188 C 95.832031 111.515625 95.808594 113.914062 95.859375 116.3125 C 95.886719 117.523438 97.050781 118.289062 98.234375 118.019531 C 99.144531 117.8125 99.65625 117.246094 99.699219 116.214844 C 99.75 115.027344 99.710938 113.839844 99.710938 112.652344 L 99.730469 112.652344 C 99.742188 111.507812 99.769531 110.363281 99.734375 109.222656 C 99.703125 108.199219 98.929688 107.460938 97.9375 107.429688 " clip-rule="nonzero"/></clipPath><clipPath id="92293db4ba"><path d="M 92.105469 96.675781 L 100.847656 96.675781 L 100.847656 100.457031 L 92.105469 100.457031 Z M 92.105469 96.675781 " clip-rule="nonzero"/></clipPath><clipPath id="f1b23cc87e"><path d="M 99.117188 96.707031 L 96.511719 96.699219 C 96.511719 96.691406 96.511719 96.683594 96.511719 96.675781 L 94.179688 96.675781 C 94.042969 96.675781 93.90625 96.683594 93.769531 96.699219 C 92.929688 96.773438 92.144531 97.632812 92.105469 98.511719 C 92.0625 99.511719 92.632812 100.363281 93.59375 100.398438 C 95.503906 100.476562 97.421875 100.476562 99.335938 100.386719 C 100.347656 100.339844 100.910156 99.460938 100.839844 98.371094 C 100.777344 97.371094 100.152344 96.746094 99.117188 96.707031 " clip-rule="nonzero"/></clipPath><clipPath id="df53b920fe"><path d="M 95.566406 48.835938 L 103.078125 48.835938 L 103.078125 59.589844 L 95.566406 59.589844 Z M 95.566406 48.835938 " clip-rule="nonzero"/></clipPath><clipPath id="727db3638c"><path d="M 95.898438 56.773438 C 95.277344 57.769531 95.648438 58.777344 96.636719 59.320312 C 97.53125 59.8125 98.285156 59.550781 98.941406 58.925781 C 100.132812 57.792969 101.300781 56.636719 102.433594 55.445312 C 102.726562 55.140625 102.847656 54.671875 103.074219 54.214844 C 102.847656 53.738281 102.734375 53.238281 102.433594 52.917969 C 101.304688 51.726562 100.125 50.574219 98.9375 49.4375 C 98.152344 48.683594 97.078125 48.644531 96.40625 49.273438 C 95.511719 50.113281 95.402344 51.160156 96.160156 52.078125 C 96.550781 52.550781 96.992188 52.988281 97.445312 53.402344 C 98.195312 54.089844 98.191406 54.171875 97.492188 54.910156 C 96.929688 55.503906 96.328125 56.089844 95.902344 56.773438 " clip-rule="nonzero"/></clipPath><clipPath id="950cfad0d9"><path d="M 99.269531 81.613281 L 103.351562 81.613281 L 103.351562 85.542969 L 99.269531 85.542969 Z M 99.269531 81.613281 " clip-rule="nonzero"/></clipPath><clipPath id="d42d5a7094"><path d="M 101.488281 81.632812 C 100.460938 81.582031 99.339844 82.523438 99.273438 83.496094 C 99.214844 84.398438 100.382812 85.5 101.429688 85.527344 C 102.292969 85.546875 103.308594 84.472656 103.335938 83.503906 C 103.363281 82.617188 102.4375 81.679688 101.488281 81.632812 " clip-rule="nonzero"/></clipPath><clipPath id="e260ed33be"><path d="M 105.785156 77.890625 L 109.699219 77.890625 L 109.699219 89.273438 L 105.785156 89.273438 Z M 105.785156 77.890625 " clip-rule="nonzero"/></clipPath><clipPath id="0a5cab9d13"><path d="M 105.84375 87.535156 C 105.949219 88.519531 106.914062 89.316406 107.832031 89.257812 C 108.621094 89.210938 109.746094 88.507812 109.695312 87.351562 C 109.640625 86.097656 109.683594 84.839844 109.683594 83.585938 L 109.660156 83.585938 L 109.648438 79.75 C 109.636719 78.917969 109.183594 78.3125 108.421875 78.03125 C 107.105469 77.542969 105.898438 78.367188 105.851562 79.867188 C 105.789062 81.738281 105.816406 83.613281 105.8125 85.484375 C 105.8125 86.167969 105.773438 86.859375 105.84375 87.535156 " clip-rule="nonzero"/></clipPath><clipPath id="ce2d16cb15"><path d="M 101.1875 66.925781 L 115.640625 66.925781 L 115.640625 70.792969 L 101.1875 70.792969 Z M 101.1875 66.925781 " clip-rule="nonzero"/></clipPath><clipPath id="1eb5e2de18"><path d="M 101.191406 68.980469 C 101.214844 69.910156 102.054688 70.730469 103.113281 70.75 C 104.917969 70.789062 106.722656 70.761719 108.527344 70.761719 L 108.527344 70.757812 C 110.261719 70.753906 112.003906 70.699219 113.738281 70.777344 C 114.675781 70.820312 115.648438 69.640625 115.628906 68.871094 C 115.597656 67.78125 114.914062 66.941406 113.824219 66.941406 C 110.234375 66.9375 106.648438 66.964844 103.058594 67.035156 C 101.914062 67.058594 101.164062 67.921875 101.191406 68.980469 " clip-rule="nonzero"/></clipPath><clipPath id="d73919bbb2"><path d="M 104 96.675781 L 112.859375 96.675781 L 112.859375 100.574219 L 104 100.574219 Z M 104 96.675781 " clip-rule="nonzero"/></clipPath><clipPath id="9fdb85c266"><path d="M 108.503906 100.574219 L 108.503906 100.496094 C 109.394531 100.457031 110.289062 100.507812 111.175781 100.445312 C 112.257812 100.367188 113.015625 99.277344 112.8125 98.203125 C 112.671875 97.429688 112.046875 96.707031 111.421875 96.703125 C 109.503906 96.6875 107.585938 96.679688 105.667969 96.734375 C 104.714844 96.761719 104.015625 97.5625 104 98.476562 C 103.980469 99.496094 104.585938 100.292969 105.566406 100.402344 C 106.539062 100.511719 107.523438 100.523438 108.503906 100.574219 " clip-rule="nonzero"/></clipPath><clipPath id="dc235cc342"><path d="M 105.414062 107.324219 L 113.671875 107.324219 L 113.671875 118.117188 L 105.414062 118.117188 Z M 105.414062 107.324219 " clip-rule="nonzero"/></clipPath><clipPath id="bdce2211e7"><path d="M 113.109375 111.59375 C 111.554688 110.222656 109.9375 108.917969 108.316406 107.628906 C 107.804688 107.222656 107.1875 107.3125 106.632812 107.621094 C 105.351562 108.328125 105.1875 109.847656 106.300781 110.902344 C 106.828125 111.402344 107.417969 111.84375 107.976562 112.3125 C 108.367188 112.640625 108.441406 112.914062 107.9375 113.265625 C 107.324219 113.695312 106.730469 114.179688 106.222656 114.726562 C 105.871094 115.101562 105.679688 115.621094 105.414062 116.074219 C 105.554688 116.890625 105.824219 117.476562 106.480469 117.800781 C 107.136719 118.125 107.855469 118.308594 108.488281 117.796875 L 112.953125 114.066406 C 113.105469 113.9375 113.214844 113.75 113.316406 113.574219 C 113.769531 112.792969 113.785156 112.191406 113.109375 111.59375 " clip-rule="nonzero"/></clipPath><clipPath id="1d402f53eb"><path d="M 112.085938 80.332031 L 115.992188 80.332031 L 115.992188 86.910156 L 112.085938 86.910156 Z M 112.085938 80.332031 " clip-rule="nonzero"/></clipPath><clipPath id="9c1e6a49f8"><path d="M 115.960938 83.578125 C 115.960938 83.054688 115.992188 82.527344 115.957031 82.003906 C 115.890625 81.023438 115.117188 80.367188 114.046875 80.347656 C 113.101562 80.332031 112.210938 81.050781 112.15625 81.964844 C 112.097656 82.988281 112.082031 84.015625 112.132812 85.035156 C 112.183594 86.058594 113.1875 86.945312 114.113281 86.898438 C 115.066406 86.84375 115.945312 85.90625 115.984375 84.878906 L 115.984375 83.578125 C 115.980469 83.578125 115.96875 83.578125 115.960938 83.578125 " clip-rule="nonzero"/></clipPath><clipPath id="4f24ebc079"><path d="M 118.457031 81.640625 L 122.511719 81.640625 L 122.511719 85.554688 L 118.457031 85.554688 Z M 118.457031 81.640625 " clip-rule="nonzero"/></clipPath><clipPath id="257d1f7369"><path d="M 120.550781 81.640625 C 119.402344 81.640625 118.488281 82.488281 118.472656 83.578125 C 118.457031 84.625 119.386719 85.53125 120.503906 85.554688 C 120.511719 85.554688 120.523438 85.554688 120.53125 85.554688 C 121.449219 85.554688 122.476562 84.511719 122.496094 83.539062 C 122.496094 83.53125 122.496094 83.527344 122.496094 83.519531 L 122.496094 83.492188 C 122.488281 82.570312 121.570312 81.664062 120.605469 81.640625 C 120.589844 81.640625 120.570312 81.640625 120.550781 81.640625 Z M 120.550781 81.640625 " clip-rule="nonzero"/></clipPath></defs><rect x="-37.5" width="450" fill="#ffffff" y="-37.499999" height="449.999989" fill-opacity="1"/><rect x="-37.5" width="450" fill="#ffffff" y="-37.499999" height="449.999989" fill-opacity="1"/><g clip-path="url(#3458a7c335)"><g clip-path="url(#2e0723274e)"><path fill="#4afaab" d="M 21.296875 37.570312 L 69.109375 37.570312 L 69.109375 129.632812 L 21.296875 129.632812 Z M 21.296875 37.570312 " fill-opacity="1" fill-rule="nonzero"/></g></g><g clip-path="url(#61930003cf)"><g clip-path="url(#78f2c9115c)"><path fill="#4afaab" d="M 73.957031 125.695312 L 77.921875 125.695312 L 77.921875 129.691406 L 73.957031 129.691406 Z M 73.957031 125.695312 " fill-opacity="1" fill-rule="nonzero"/></g></g><g clip-path="url(#ddc1a15b7f)"><g clip-path="url(#39c1e0128e)"><path fill="#4afaab" d="M 73.988281 81.628906 L 77.851562 81.628906 L 77.851562 85.582031 L 73.988281 85.582031 Z M 73.988281 81.628906 " fill-opacity="1" fill-rule="nonzero"/></g></g><g clip-path="url(#c7bcf32895)"><g clip-path="url(#8bdf10b424)"><path fill="#4afaab" d="M 73.894531 37.5 L 80.425781 37.5 L 80.425781 41.390625 L 73.894531 41.390625 Z M 73.894531 37.5 " fill-opacity="1" fill-rule="nonzero"/></g></g><g clip-path="url(#b69ffbab5c)"><g clip-path="url(#f7f6ba6ce7)"><path fill="#4afaab" d="M 73.933594 66.902344 L 79.441406 66.902344 L 79.441406 70.824219 L 73.933594 70.824219 Z M 73.933594 66.902344 " fill-opacity="1" fill-rule="nonzero"/></g></g><g clip-path="url(#0fe62577eb)"><g clip-path="url(#a29b2567b7)"><path fill="#4afaab" d="M 73.679688 48.804688 L 81.027344 48.804688 L 81.027344 59.539062 L 73.679688 59.539062 Z M 73.679688 48.804688 " fill-opacity="1" fill-rule="nonzero"/></g></g><g clip-path="url(#bbcbaf49d0)"><g clip-path="url(#54ea230636)"><path fill="#4afaab" d="M 74.789062 107.4375 L 82.855469 107.4375 L 82.855469 118.089844 L 74.789062 118.089844 Z M 74.789062 107.4375 " fill-opacity="1" fill-rule="nonzero"/></g></g><g clip-path="url(#da1ba24c8e)"><g clip-path="url(#d055d84ac1)"><path fill="#4afaab" d="M 80.292969 79.871094 L 84.265625 79.871094 L 84.265625 87.394531 L 80.292969 87.394531 Z M 80.292969 79.871094 " fill-opacity="1" fill-rule="nonzero"/></g></g><g clip-path="url(#d67cd10eb7)"><g clip-path="url(#f69d93010d)"><path fill="#4afaab" d="M 73.976562 96.324219 L 88.804688 96.324219 L 88.804688 100.253906 L 73.976562 100.253906 Z M 73.976562 96.324219 " fill-opacity="1" fill-rule="nonzero"/></g></g><g clip-path="url(#31e2350b5a)"><g clip-path="url(#726fa770b0)"><path fill="#4afaab" d="M 86.636719 77.921875 L 90.566406 77.921875 L 90.566406 89.320312 L 86.636719 89.320312 Z M 86.636719 77.921875 " fill-opacity="1" fill-rule="nonzero"/></g></g><g clip-path="url(#5e7493decc)"><g clip-path="url(#52bf697432)"><path fill="#4afaab" d="M 84.554688 49.914062 L 92.214844 49.914062 L 92.214844 58.949219 L 84.554688 58.949219 Z M 84.554688 49.914062 " fill-opacity="1" fill-rule="nonzero"/></g></g><g clip-path="url(#8c1541a156)"><g clip-path="url(#6aabaf9b52)"><path fill="#4afaab" d="M 88.492188 107.417969 L 92.375 107.417969 L 92.375 118.113281 L 88.492188 118.113281 Z M 88.492188 107.417969 " fill-opacity="1" fill-rule="nonzero"/></g></g><g clip-path="url(#3d26d29515)"><g clip-path="url(#2a1bdb6cf7)"><path fill="#4afaab" d="M 83.914062 37.582031 L 94.273438 37.582031 L 94.273438 41.390625 L 83.914062 41.390625 Z M 83.914062 37.582031 " fill-opacity="1" fill-rule="nonzero"/></g></g><g clip-path="url(#838e6c84ac)"><g clip-path="url(#0bb7626c78)"><path fill="#4afaab" d="M 81.859375 125.792969 L 96.503906 125.792969 L 96.503906 129.652344 L 81.859375 129.652344 Z M 81.859375 125.792969 " fill-opacity="1" fill-rule="nonzero"/></g></g><g clip-path="url(#6158e2b61c)"><g clip-path="url(#5a4a245eac)"><path fill="#4afaab" d="M 83.042969 66.921875 L 97.492188 66.921875 L 97.492188 70.777344 L 83.042969 70.777344 Z M 83.042969 66.921875 " fill-opacity="1" fill-rule="nonzero"/></g></g><g clip-path="url(#d64191b1f9)"><g clip-path="url(#4a466bc5f0)"><path fill="#4afaab" d="M 93.066406 80.378906 L 96.90625 80.378906 L 96.90625 86.820312 L 93.066406 86.820312 Z M 93.066406 80.378906 " fill-opacity="1" fill-rule="nonzero"/></g></g><g clip-path="url(#02862668bb)"><g clip-path="url(#0453d9c29b)"><path fill="#4afaab" d="M 95.832031 107.429688 L 99.75 107.429688 L 99.75 118.070312 L 95.832031 118.070312 Z M 95.832031 107.429688 " fill-opacity="1" fill-rule="nonzero"/></g></g><g clip-path="url(#92293db4ba)"><g clip-path="url(#f1b23cc87e)"><path fill="#4afaab" d="M 92.105469 96.675781 L 100.847656 96.675781 L 100.847656 100.457031 L 92.105469 100.457031 Z M 92.105469 96.675781 " fill-opacity="1" fill-rule="nonzero"/></g></g><g clip-path="url(#df53b920fe)"><g clip-path="url(#727db3638c)"><path fill="#4afaab" d="M 95.59375 48.835938 L 103.078125 48.835938 L 103.078125 59.589844 L 95.59375 59.589844 Z M 95.59375 48.835938 " fill-opacity="1" fill-rule="nonzero"/></g></g><g clip-path="url(#950cfad0d9)"><g clip-path="url(#d42d5a7094)"><path fill="#4afaab" d="M 99.269531 81.628906 L 103.335938 81.628906 L 103.335938 85.527344 L 99.269531 85.527344 Z M 99.269531 81.628906 " fill-opacity="1" fill-rule="nonzero"/></g></g><g clip-path="url(#e260ed33be)"><g clip-path="url(#0a5cab9d13)"><path fill="#4afaab" d="M 105.800781 77.890625 L 109.699219 77.890625 L 109.699219 89.257812 L 105.800781 89.257812 Z M 105.800781 77.890625 " fill-opacity="1" fill-rule="nonzero"/></g></g><g clip-path="url(#ce2d16cb15)"><g clip-path="url(#1eb5e2de18)"><path fill="#4afaab" d="M 101.1875 66.941406 L 115.625 66.941406 L 115.625 70.777344 L 101.1875 70.777344 Z M 101.1875 66.941406 " fill-opacity="1" fill-rule="nonzero"/></g></g><g clip-path="url(#d73919bbb2)"><g clip-path="url(#9fdb85c266)"><path fill="#4afaab" d="M 104 96.691406 L 112.84375 96.691406 L 112.84375 100.574219 L 104 100.574219 Z M 104 96.691406 " fill-opacity="1" fill-rule="nonzero"/></g></g><g clip-path="url(#dc235cc342)"><g clip-path="url(#bdce2211e7)"><path fill="#4afaab" d="M 105.414062 107.355469 L 113.640625 107.355469 L 113.640625 118.117188 L 105.414062 118.117188 Z M 105.414062 107.355469 " fill-opacity="1" fill-rule="nonzero"/></g></g><g clip-path="url(#1d402f53eb)"><g clip-path="url(#9c1e6a49f8)"><path fill="#4afaab" d="M 112.101562 80.347656 L 115.992188 80.347656 L 115.992188 86.894531 L 112.101562 86.894531 Z M 112.101562 80.347656 " fill-opacity="1" fill-rule="nonzero"/></g></g><g clip-path="url(#4f24ebc079)"><g clip-path="url(#257d1f7369)"><path fill="#4afaab" d="M 118.472656 81.640625 L 122.496094 81.640625 L 122.496094 85.554688 L 118.472656 85.554688 Z M 118.472656 81.640625 " fill-opacity="1" fill-rule="nonzero"/></g></g><g fill="#ffffff" fill-opacity="1"><g transform="translate(198.404787, 87.718809)"><g><path d="M 1.109375 -11.78125 C 1.109375 -14.101562 1.609375 -16.175781 2.609375 -18 C 3.617188 -19.820312 5.019531 -21.238281 6.8125 -22.25 C 8.613281 -23.269531 10.648438 -23.78125 12.921875 -23.78125 C 15.710938 -23.78125 18.101562 -23.039062 20.09375 -21.5625 C 22.082031 -20.09375 23.410156 -18.082031 24.078125 -15.53125 L 17.78125 -15.53125 C 17.3125 -16.519531 16.644531 -17.269531 15.78125 -17.78125 C 14.925781 -18.289062 13.953125 -18.546875 12.859375 -18.546875 C 11.097656 -18.546875 9.671875 -17.929688 8.578125 -16.703125 C 7.484375 -15.472656 6.9375 -13.832031 6.9375 -11.78125 C 6.9375 -9.726562 7.484375 -8.085938 8.578125 -6.859375 C 9.671875 -5.628906 11.097656 -5.015625 12.859375 -5.015625 C 13.953125 -5.015625 14.925781 -5.269531 15.78125 -5.78125 C 16.644531 -6.300781 17.3125 -7.050781 17.78125 -8.03125 L 24.078125 -8.03125 C 23.410156 -5.488281 22.082031 -3.484375 20.09375 -2.015625 C 18.101562 -0.554688 15.710938 0.171875 12.921875 0.171875 C 10.648438 0.171875 8.613281 -0.332031 6.8125 -1.34375 C 5.019531 -2.363281 3.617188 -3.773438 2.609375 -5.578125 C 1.609375 -7.390625 1.109375 -9.457031 1.109375 -11.78125 Z M 1.109375 -11.78125 "/></g></g></g><g fill="#ffffff" fill-opacity="1"><g transform="translate(225.055629, 87.718809)"><g><path d="M 1.109375 -11.78125 C 1.109375 -14.101562 1.609375 -16.175781 2.609375 -18 C 3.617188 -19.820312 5.019531 -21.238281 6.8125 -22.25 C 8.613281 -23.269531 10.648438 -23.78125 12.921875 -23.78125 C 15.710938 -23.78125 18.101562 -23.039062 20.09375 -21.5625 C 22.082031 -20.09375 23.410156 -18.082031 24.078125 -15.53125 L 17.78125 -15.53125 C 17.3125 -16.519531 16.644531 -17.269531 15.78125 -17.78125 C 14.925781 -18.289062 13.953125 -18.546875 12.859375 -18.546875 C 11.097656 -18.546875 9.671875 -17.929688 8.578125 -16.703125 C 7.484375 -15.472656 6.9375 -13.832031 6.9375 -11.78125 C 6.9375 -9.726562 7.484375 -8.085938 8.578125 -6.859375 C 9.671875 -5.628906 11.097656 -5.015625 12.859375 -5.015625 C 13.953125 -5.015625 14.925781 -5.269531 15.78125 -5.78125 C 16.644531 -6.300781 17.3125 -7.050781 17.78125 -8.03125 L 24.078125 -8.03125 C 23.410156 -5.488281 22.082031 -3.484375 20.09375 -2.015625 C 18.101562 -0.554688 15.710938 0.171875 12.921875 0.171875 C 10.648438 0.171875 8.613281 -0.332031 6.8125 -1.34375 C 5.019531 -2.363281 3.617188 -3.773438 2.609375 -5.578125 C 1.609375 -7.390625 1.109375 -9.457031 1.109375 -11.78125 Z M 1.109375 -11.78125 "/></g></g></g><g fill="#ffffff" fill-opacity="1"><g transform="translate(251.706471, 87.718809)"><g><path d="M 17.375 -23.5 L 17.375 -18.921875 L 7.796875 -18.921875 L 7.796875 -13.96875 L 14.96875 -13.96875 L 14.96875 -9.515625 L 7.796875 -9.515625 L 7.796875 0 L 2.078125 0 L 2.078125 -23.5 Z M 17.375 -23.5 "/></g></g></g><g fill="#ffffff" fill-opacity="1"><g transform="translate(271.159022, 87.718809)"><g><path d="M 4.953125 -20.625 C 3.953125 -20.625 3.132812 -20.921875 2.5 -21.515625 C 1.863281 -22.109375 1.546875 -22.835938 1.546875 -23.703125 C 1.546875 -24.597656 1.863281 -25.34375 2.5 -25.9375 C 3.132812 -26.53125 3.953125 -26.828125 4.953125 -26.828125 C 5.929688 -26.828125 6.738281 -26.53125 7.375 -25.9375 C 8.019531 -25.34375 8.34375 -24.597656 8.34375 -23.703125 C 8.34375 -22.835938 8.019531 -22.109375 7.375 -21.515625 C 6.738281 -20.921875 5.929688 -20.625 4.953125 -20.625 Z M 7.796875 -18.6875 L 7.796875 0 L 2.078125 0 L 2.078125 -18.6875 Z M 7.796875 -18.6875 "/></g></g></g><g fill="#ffffff" fill-opacity="1"><g transform="translate(282.174509, 87.718809)"><g><path d="M 13.125 0 L 9.546875 -5.1875 L 6.53125 0 L 0.328125 0 L 6.5 -9.546875 L 0.171875 -18.6875 L 6.59375 -18.6875 L 10.171875 -13.53125 L 13.1875 -18.6875 L 19.390625 -18.6875 L 13.125 -9.28125 L 19.5625 0 Z M 13.125 0 "/></g></g></g><g fill="#4afaab" fill-opacity="1"><g transform="translate(197.10603, 110.071167)"><g><path d="M 8.640625 -6.3125 L 6.8125 0 L 5.875 0 L 4.40625 -5.078125 L 2.890625 0 L 1.96875 0.015625 L 0.203125 -6.3125 L 1.09375 -6.3125 L 2.46875 -0.953125 L 3.984375 -6.3125 L 4.90625 -6.3125 L 6.359375 -0.984375 L 7.75 -6.3125 Z M 8.640625 -6.3125 "/></g></g></g><g fill="#4afaab" fill-opacity="1"><g transform="translate(212.152946, 110.071167)"><g><path d="M 1.515625 -5.640625 L 1.515625 -3.53125 L 3.828125 -3.53125 L 3.828125 -2.859375 L 1.515625 -2.859375 L 1.515625 -0.6875 L 4.09375 -0.6875 L 4.09375 0 L 0.703125 0 L 0.703125 -6.328125 L 4.09375 -6.328125 L 4.09375 -5.640625 Z M 1.515625 -5.640625 "/></g></g></g><g fill="#4afaab" fill-opacity="1"><g transform="translate(223.003891, 110.071167)"><g/></g></g><g fill="#4afaab" fill-opacity="1"><g transform="translate(231.62545, 110.071167)"><g><path d="M 0.390625 -3.15625 C 0.390625 -3.78125 0.523438 -4.335938 0.796875 -4.828125 C 1.078125 -5.316406 1.457031 -5.695312 1.9375 -5.96875 C 2.425781 -6.25 2.960938 -6.390625 3.546875 -6.390625 C 4.234375 -6.390625 4.832031 -6.222656 5.34375 -5.890625 C 5.863281 -5.566406 6.238281 -5.097656 6.46875 -4.484375 L 5.484375 -4.484375 C 5.304688 -4.867188 5.050781 -5.160156 4.71875 -5.359375 C 4.394531 -5.566406 4.003906 -5.671875 3.546875 -5.671875 C 3.097656 -5.671875 2.695312 -5.566406 2.34375 -5.359375 C 2 -5.160156 1.726562 -4.867188 1.53125 -4.484375 C 1.332031 -4.109375 1.234375 -3.664062 1.234375 -3.15625 C 1.234375 -2.65625 1.332031 -2.21875 1.53125 -1.84375 C 1.726562 -1.46875 2 -1.175781 2.34375 -0.96875 C 2.695312 -0.757812 3.097656 -0.65625 3.546875 -0.65625 C 4.003906 -0.65625 4.394531 -0.753906 4.71875 -0.953125 C 5.050781 -1.160156 5.304688 -1.457031 5.484375 -1.84375 L 6.46875 -1.84375 C 6.238281 -1.238281 5.863281 -0.769531 5.34375 -0.4375 C 4.832031 -0.113281 4.234375 0.046875 3.546875 0.046875 C 2.960938 0.046875 2.425781 -0.0859375 1.9375 -0.359375 C 1.457031 -0.628906 1.078125 -1.007812 0.796875 -1.5 C 0.523438 -1.988281 0.390625 -2.539062 0.390625 -3.15625 Z M 0.390625 -3.15625 "/></g></g></g><g fill="#4afaab" fill-opacity="1"><g transform="translate(244.823602, 110.071167)"><g><path d="M 4.4375 -1.40625 L 1.671875 -1.40625 L 1.171875 0 L 0.296875 0 L 2.578125 -6.28125 L 3.53125 -6.28125 L 5.8125 0 L 4.9375 0 Z M 4.203125 -2.078125 L 3.046875 -5.265625 L 1.90625 -2.078125 Z M 4.203125 -2.078125 "/></g></g></g><g fill="#4afaab" fill-opacity="1"><g transform="translate(257.133623, 110.071167)"><g><path d="M 5.671875 0 L 4.84375 0 L 1.515625 -5.03125 L 1.515625 0 L 0.703125 0 L 0.703125 -6.328125 L 1.515625 -6.328125 L 4.84375 -1.3125 L 4.84375 -6.328125 L 5.671875 -6.328125 Z M 5.671875 0 "/></g></g></g><g fill="#4afaab" fill-opacity="1"><g transform="translate(269.706462, 110.071167)"><g/></g></g><g fill="#4afaab" fill-opacity="1"><g transform="translate(278.32802, 110.071167)"><g><path d="M 4.265625 -6.3125 L 4.265625 -5.640625 L 1.515625 -5.640625 L 1.515625 -3.515625 L 3.75 -3.515625 L 3.75 -2.84375 L 1.515625 -2.84375 L 1.515625 0 L 0.703125 0 L 0.703125 -6.3125 Z M 4.265625 -6.3125 "/></g></g></g><g fill="#4afaab" fill-opacity="1"><g transform="translate(289.097404, 110.071167)"><g><path d="M 1.515625 -6.3125 L 1.515625 0 L 0.703125 0 L 0.703125 -6.3125 Z M 1.515625 -6.3125 "/></g></g></g><g fill="#4afaab" fill-opacity="1"><g transform="translate(297.528648, 110.071167)"><g><path d="M 3.28125 -3.15625 L 5.21875 0 L 4.28125 0 L 2.765625 -2.46875 L 1.328125 0 L 0.421875 0 L 2.34375 -3.15625 L 0.40625 -6.3125 L 1.328125 -6.3125 L 2.859375 -3.84375 L 4.3125 -6.3125 L 5.234375 -6.3125 Z M 3.28125 -3.15625 "/></g></g></g></svg>